<?xml version="1.0" encoding="utf-8"?>
<!-- Generator: Adobe Illustrator 26.2.1, SVG Export Plug-In . SVG Version: 6.00 Build 0)  -->
<svg version="1.1" xmlns="http://www.w3.org/2000/svg" xmlns:xlink="http://www.w3.org/1999/xlink" x="0px" y="0px"
	 viewBox="0 0 1920 1080" style="enable-background:new 0 0 1920 1080;" xml:space="preserve">
<style type="text/css">
	
		.st0{clip-path:url(#SVGID_00000059996250654713488370000012182020179606566579_);fill:url(#SVGID_00000096036449930428181470000012112065461604652722_);}
	.st1{clip-path:url(#SVGID_00000059996250654713488370000012182020179606566579_);}
	.st2{fill:#BBFFFD;}
	.st3{fill:#FFFFFF;}
	.st4{fill:#CCFFFF;}
</style>
<g id="Layer_1">
</g>
<g id="Layer_3">
	<g>
		<defs>
			<rect id="SVGID_1_" width="1920" height="1082.2"/>
		</defs>
		<clipPath id="SVGID_00000119833187124831707240000016224182865750963629_">
			<use xlink:href="#SVGID_1_"  style="overflow:visible;"/>
		</clipPath>
		
			<linearGradient id="SVGID_00000163047879731959927810000013412392720780640440_" gradientUnits="userSpaceOnUse" x1="959.4079" y1="1125.8435" x2="959.4079" y2="8.0022">
			<stop  offset="0" style="stop-color:#00041E"/>
			<stop  offset="1" style="stop-color:#120A2B"/>
		</linearGradient>
		
			<rect x="-6.7" y="-8.2" style="clip-path:url(#SVGID_00000119833187124831707240000016224182865750963629_);fill:url(#SVGID_00000163047879731959927810000013412392720780640440_);" width="1932.3" height="1141.7"/>
		<g style="clip-path:url(#SVGID_00000119833187124831707240000016224182865750963629_);">
			<circle class="st2" cx="493.7" cy="309.3" r="5.3"/>
		</g>
		<g style="clip-path:url(#SVGID_00000119833187124831707240000016224182865750963629_);">
			<circle class="st2" cx="337.8" cy="885.7" r="5.3"/>
		</g>
		<g style="clip-path:url(#SVGID_00000119833187124831707240000016224182865750963629_);">
			<circle class="st2" cx="855.5" cy="723.7" r="5.3"/>
		</g>
		<g style="clip-path:url(#SVGID_00000119833187124831707240000016224182865750963629_);">
			<circle class="st2" cx="1744.7" cy="148.5" r="5.3"/>
		</g>
		<g style="clip-path:url(#SVGID_00000119833187124831707240000016224182865750963629_);">
			<circle class="st2" cx="1646.1" cy="919.1" r="5.3"/>
		</g>
		<g style="clip-path:url(#SVGID_00000119833187124831707240000016224182865750963629_);">
			<circle class="st2" cx="169.3" cy="819.4" r="5.3"/>
		</g>
		<g style="clip-path:url(#SVGID_00000119833187124831707240000016224182865750963629_);">
			<circle class="st2" cx="167.5" cy="259.1" r="5.3"/>
		</g>
		<g style="clip-path:url(#SVGID_00000119833187124831707240000016224182865750963629_);">
			<circle class="st2" cx="335.9" cy="102.3" r="5.3"/>
		</g>
		<g style="clip-path:url(#SVGID_00000119833187124831707240000016224182865750963629_);">
			<g>
				<g>
					<circle class="st3" cx="2250.1" cy="961.8" r="1.4"/>
				</g>
				<g>
					<circle class="st3" cx="2217.2" cy="1068.4" r="1.5"/>
				</g>
				<g>
					<circle class="st3" cx="2212" cy="882.9" r="1.4"/>
				</g>
				<g>
					<circle class="st3" cx="2179.7" cy="1005.8" r="1.3"/>
				</g>
				<g>
					<circle class="st2" cx="2133.1" cy="1047.9" r="0.9"/>
				</g>
				<g>
					<circle class="st2" cx="2065.5" cy="1007.6" r="1.1"/>
				</g>
				<g>
					<circle class="st2" cx="1997.8" cy="973.3" r="1.4"/>
				</g>
				<g>
					<circle class="st2" cx="1969.9" cy="940.6" r="1"/>
				</g>
				<g>
					<circle class="st2" cx="1960.6" cy="976.5" r="1.1"/>
				</g>
				<g>
					<circle class="st2" cx="1914.4" cy="927.6" r="1.5"/>
				</g>
				<g>
					<circle class="st2" cx="1909.3" cy="1036.1" r="0.7"/>
				</g>
				<g>
					<circle class="st2" cx="1899.5" cy="962.3" r="1.3"/>
				</g>
				<g>
					<circle class="st2" cx="1831.6" cy="939.8" r="1.3"/>
				</g>
				<g>
					<circle class="st2" cx="1797" cy="956.4" r="1.3"/>
				</g>
				<g>
					<circle class="st2" cx="1790.8" cy="989.4" r="1.4"/>
				</g>
				<g>
					<circle class="st2" cx="1733.8" cy="901.2" r="0.8"/>
				</g>
				<g>
					<circle class="st2" cx="1703.2" cy="936.1" r="0.7"/>
				</g>
				<g>
					<circle class="st2" cx="1695.7" cy="869.6" r="1.3"/>
				</g>
				<g>
					<circle class="st2" cx="1662.2" cy="908.4" r="0.7"/>
				</g>
				<g>
					<circle class="st2" cx="1591.9" cy="1008.2" r="1.4"/>
				</g>
				<g>
					<circle class="st2" cx="1576.1" cy="1067.8" r="1.4"/>
				</g>
				<g>
					<circle class="st2" cx="1556.8" cy="1017.8" r="0.9"/>
				</g>
				<g>
					<circle class="st2" cx="1483.7" cy="1086.2" r="1"/>
				</g>
				<g>
					<circle class="st2" cx="1444.4" cy="927.3" r="1.1"/>
				</g>
				<g>
					<circle class="st2" cx="1373.9" cy="956.5" r="0.9"/>
				</g>
				<g>
					<circle class="st2" cx="1334.1" cy="885.2" r="1"/>
				</g>
				<g>
					<circle class="st2" cx="1296" cy="995.5" r="1"/>
				</g>
				<g>
					<circle class="st2" cx="1226.7" cy="914.1" r="0.9"/>
				</g>
				<g>
					<circle class="st2" cx="1178.2" cy="1054.9" r="0.7"/>
				</g>
				<g>
					<circle class="st2" cx="1165.8" cy="1038.6" r="1"/>
				</g>
				<g>
					<circle class="st2" cx="1114.6" cy="975.9" r="1.2"/>
				</g>
				<g>
					<circle class="st2" cx="1065" cy="930.2" r="1"/>
				</g>
				<g>
					<circle class="st2" cx="1032" cy="1021.2" r="1.1"/>
				</g>
				<g>
					<circle class="st2" cx="1014.7" cy="953.9" r="1.3"/>
				</g>
				<g>
					<circle class="st2" cx="968.2" cy="968.4" r="1.1"/>
				</g>
				<g>
					<circle class="st2" cx="961.1" cy="884.9" r="1.3"/>
				</g>
				<g>
					<circle class="st2" cx="885.6" cy="993.6" r="1.2"/>
				</g>
				<g>
					<circle class="st2" cx="883.9" cy="959.7" r="0.9"/>
				</g>
				<g>
					<circle class="st2" cx="844" cy="953.4" r="1.4"/>
				</g>
				<g>
					<circle class="st2" cx="800.6" cy="864.1" r="0.9"/>
				</g>
				<g>
					<circle class="st2" cx="775" cy="920" r="0.8"/>
				</g>
				<g>
					<circle class="st2" cx="756.9" cy="877.9" r="0.9"/>
				</g>
				<g>
					<circle class="st2" cx="706.3" cy="887.3" r="1.4"/>
				</g>
				<g>
					<circle class="st2" cx="685.3" cy="875.9" r="1.2"/>
				</g>
				<g>
					<circle class="st2" cx="542.5" cy="1039.5" r="1.4"/>
				</g>
				<g>
					<circle class="st2" cx="558.5" cy="848.6" r="0.8"/>
				</g>
				<g>
					<circle class="st2" cx="465" cy="1027.6" r="1"/>
				</g>
				<g>
					<circle class="st2" cx="464.8" cy="959.5" r="1.1"/>
				</g>
				<g>
					<circle class="st2" cx="424.9" cy="894.2" r="1.2"/>
				</g>
				<g>
					<circle class="st2" cx="420.9" cy="872.4" r="1"/>
				</g>
				<g>
					<circle class="st2" cx="388.8" cy="990.3" r="1.1"/>
				</g>
				<g>
					<circle class="st2" cx="369.5" cy="858.8" r="1"/>
				</g>
				<g>
					<circle class="st2" cx="299.9" cy="893.3" r="1"/>
				</g>
				<g>
					<circle class="st2" cx="260.8" cy="920.2" r="0.9"/>
				</g>
				<g>
					<circle class="st2" cx="207.7" cy="851" r="1.3"/>
				</g>
				<g>
					<circle class="st2" cx="196" cy="891.8" r="1.5"/>
				</g>
				<g>
					<circle class="st2" cx="123" cy="873" r="1.5"/>
				</g>
				<g>
					<circle class="st2" cx="107.3" cy="879.5" r="1.1"/>
				</g>
				<g>
					<circle class="st2" cx="74.2" cy="808.9" r="1.4"/>
				</g>
				<g>
					<circle class="st2" cx="20.9" cy="878.5" r="1.2"/>
				</g>
				<g>
					
						<ellipse transform="matrix(4.854143e-03 -1 1 4.854143e-03 -789.0147 753.946)" class="st2" cx="-15.7" cy="773.4" rx="1.1" ry="1.1"/>
				</g>
				<g>
					<circle class="st2" cx="-49.3" cy="847.8" r="0.8"/>
				</g>
				<g>
					<circle class="st2" cx="-50.3" cy="781.3" r="1.2"/>
				</g>
				<g>
					<circle class="st4" cx="-76.7" cy="741" r="0.7"/>
				</g>
				<g>
					<circle class="st4" cx="-92.7" cy="726.3" r="0.8"/>
				</g>
				<g>
					<circle class="st3" cx="-124.5" cy="888" r="0.7"/>
				</g>
				<g>
					<circle class="st3" cx="-115.4" cy="769.4" r="1"/>
				</g>
				<g>
					<circle class="st3" cx="-147" cy="898" r="1.4"/>
				</g>
				<g>
					<circle class="st3" cx="-140.2" cy="722.3" r="1.2"/>
				</g>
				<g>
					<circle class="st3" cx="-220" cy="832.3" r="1.4"/>
				</g>
				<g>
					<circle class="st3" cx="-222.7" cy="717.9" r="1.2"/>
				</g>
				<g>
					<circle class="st3" cx="-258" cy="734.4" r="1.4"/>
				</g>
				<g>
					<circle class="st3" cx="-229.6" cy="877.8" r="1.2"/>
				</g>
				<g>
					<circle class="st3" cx="-230.2" cy="752.4" r="1.4"/>
				</g>
				<g>
					<circle class="st3" cx="-159.8" cy="834.7" r="1"/>
				</g>
				<g>
					<circle class="st3" cx="-120.8" cy="762.6" r="1.1"/>
				</g>
				<g>
					<circle class="st4" cx="-67.9" cy="742.4" r="0.9"/>
				</g>
				<g>
					<circle class="st2" cx="-34.1" cy="782.7" r="1.2"/>
				</g>
				<g>
					<circle class="st2" cx="37.8" cy="830" r="1.1"/>
				</g>
				<g>
					<circle class="st2" cx="29.7" cy="663.9" r="1.5"/>
				</g>
				<g>
					<circle class="st2" cx="77" cy="624.3" r="1.4"/>
				</g>
				<g>
					<circle class="st2" cx="140.1" cy="789.9" r="1.5"/>
				</g>
				<g>
					<circle class="st2" cx="183.9" cy="628.6" r="1.1"/>
				</g>
				<g>
					<circle class="st2" cx="256.8" cy="604.3" r="0.7"/>
				</g>
				<g>
					<circle class="st2" cx="307.6" cy="775.7" r="1.4"/>
				</g>
				<g>
					<circle class="st2" cx="405" cy="714.1" r="1.4"/>
				</g>
				<g>
					<circle class="st2" cx="446.2" cy="651.2" r="1"/>
				</g>
				<g>
					<circle class="st2" cx="522.1" cy="747.1" r="1"/>
				</g>
				<g>
					<circle class="st2" cx="547.6" cy="691.3" r="1.2"/>
				</g>
				<g>
					<circle class="st2" cx="591.2" cy="599.7" r="1"/>
				</g>
				<g>
					<circle class="st2" cx="713.1" cy="663.9" r="1.2"/>
				</g>
				<g>
					<circle class="st2" cx="746.2" cy="575.7" r="1.1"/>
				</g>
				<g>
					<circle class="st2" cx="811.6" cy="765.8" r="0.9"/>
				</g>
				<g>
					<circle class="st2" cx="816.8" cy="639.2" r="1.3"/>
				</g>
				<g>
					<circle class="st2" cx="881.3" cy="553.7" r="1"/>
				</g>
				<g>
					<circle class="st2" cx="937.6" cy="692.5" r="0.8"/>
				</g>
				<g>
					<circle class="st2" cx="938.1" cy="656.7" r="1"/>
				</g>
				<g>
					<circle class="st2" cx="967.8" cy="741" r="1.2"/>
				</g>
				<g>
					<circle class="st2" cx="969.9" cy="578.4" r="0.8"/>
				</g>
				<g>
					<circle class="st2" cx="1007.4" cy="602.1" r="1.2"/>
				</g>
				<g>
					<circle class="st2" cx="1067.9" cy="694.8" r="1.2"/>
				</g>
				<g>
					<circle class="st2" cx="1140.9" cy="686.1" r="1.2"/>
				</g>
				<g>
					<circle class="st2" cx="1159.1" cy="648.4" r="1"/>
				</g>
				<g>
					<circle class="st2" cx="1215.7" cy="605.9" r="1.4"/>
				</g>
				<g>
					<circle class="st2" cx="1220" cy="644.7" r="1.4"/>
				</g>
				<g>
					<circle class="st2" cx="1344.9" cy="606.8" r="1.2"/>
				</g>
				<g>
					<circle class="st2" cx="1377.7" cy="709.7" r="0.9"/>
				</g>
				<g>
					<circle class="st2" cx="1383.9" cy="726.1" r="0.8"/>
				</g>
				<g>
					<circle class="st2" cx="1385.5" cy="612.6" r="0.8"/>
				</g>
				<g>
					<circle class="st2" cx="1427.9" cy="598.7" r="1.1"/>
				</g>
				<g>
					<circle class="st2" cx="1491.6" cy="729.6" r="1.5"/>
				</g>
				<g>
					<circle class="st2" cx="1546.8" cy="729.4" r="1.3"/>
				</g>
				<g>
					<circle class="st2" cx="1603" cy="637.2" r="0.7"/>
				</g>
				<g>
					<circle class="st2" cx="1671.9" cy="670.6" r="0.8"/>
				</g>
				<g>
					<circle class="st2" cx="1745.7" cy="539.8" r="0.8"/>
				</g>
				<g>
					<circle class="st2" cx="1867.1" cy="593.9" r="1.2"/>
				</g>
				<g>
					<circle class="st2" cx="1940" cy="668" r="1.1"/>
				</g>
				<g>
					<circle class="st2" cx="1966.5" cy="543.5" r="0.8"/>
				</g>
				<g>
					<circle class="st2" cx="1990.6" cy="739" r="1.5"/>
				</g>
				<g>
					<circle class="st2" cx="2035.8" cy="685.1" r="0.8"/>
				</g>
				<g>
					<circle class="st2" cx="2077.7" cy="613.7" r="1.4"/>
				</g>
				<g>
					<circle class="st2" cx="2077" cy="727.2" r="1.4"/>
				</g>
				<g>
					<circle class="st2" cx="2112.3" cy="581" r="0.8"/>
				</g>
				<g>
					<circle class="st2" cx="2133.8" cy="597" r="1.3"/>
				</g>
				<g>
					<circle class="st2" cx="2147" cy="720.2" r="0.9"/>
				</g>
				<g>
					<circle class="st3" cx="2210.1" cy="593.1" r="1"/>
				</g>
				<g>
					<circle class="st3" cx="2217.6" cy="593.3" r="1.4"/>
				</g>
				<g>
					<circle class="st3" cx="2247.7" cy="542.1" r="1.1"/>
				</g>
				<g>
					<circle class="st3" cx="2280.3" cy="719.2" r="1"/>
				</g>
				<g>
					<circle class="st3" cx="2300.5" cy="573.3" r="1.1"/>
				</g>
				<g>
					<circle class="st3" cx="2199.6" cy="669.3" r="1.2"/>
				</g>
				<g>
					<circle class="st3" cx="2187.1" cy="582.3" r="1.2"/>
				</g>
				<g>
					<circle class="st2" cx="2137" cy="504.9" r="1"/>
				</g>
				<g>
					<circle class="st2" cx="2112.7" cy="600.4" r="1.2"/>
				</g>
				<g>
					<circle class="st2" cx="2050.3" cy="627.5" r="1"/>
				</g>
				<g>
					<circle class="st2" cx="2070.9" cy="516.7" r="1"/>
				</g>
				<g>
					<circle class="st2" cx="2015.9" cy="645.7" r="1.2"/>
				</g>
				<g>
					<circle class="st2" cx="2029.8" cy="546.3" r="0.8"/>
				</g>
				<g>
					<circle class="st2" cx="2004.5" cy="636.9" r="0.9"/>
				</g>
				<g>
					<circle class="st2" cx="1942.6" cy="641.7" r="1.5"/>
				</g>
				<g>
					<circle class="st2" cx="1934.7" cy="610" r="1.1"/>
				</g>
				<g>
					<circle class="st2" cx="1907.5" cy="527.4" r="1.3"/>
				</g>
				<g>
					<circle class="st2" cx="1869.5" cy="616.2" r="0.9"/>
				</g>
				<g>
					<circle class="st2" cx="1847.2" cy="524" r="1"/>
				</g>
				<g>
					<circle class="st2" cx="1747.5" cy="412.9" r="1.5"/>
				</g>
				<g>
					<circle class="st2" cx="1696.4" cy="560.6" r="1.5"/>
				</g>
				<g>
					<circle class="st2" cx="1668.1" cy="435.6" r="1.1"/>
				</g>
				<g>
					<circle class="st2" cx="1637.7" cy="561.7" r="1.3"/>
				</g>
				<g>
					<circle class="st2" cx="1613.2" cy="581.6" r="1.1"/>
				</g>
				<g>
					<circle class="st2" cx="1612.9" cy="424" r="1"/>
				</g>
				<g>
					<circle class="st2" cx="1593.6" cy="418.7" r="1.5"/>
				</g>
				<g>
					<circle class="st2" cx="1578.1" cy="491.6" r="0.8"/>
				</g>
				<g>
					<circle class="st2" cx="1562.2" cy="428.5" r="0.7"/>
				</g>
				<g>
					<circle class="st2" cx="1491.7" cy="485.4" r="1.4"/>
				</g>
				<g>
					<circle class="st2" cx="1486.9" cy="500.3" r="1.3"/>
				</g>
				<g>
					<circle class="st2" cx="1399.9" cy="411.1" r="0.9"/>
				</g>
				<g>
					<circle class="st2" cx="1322.4" cy="591.4" r="0.9"/>
				</g>
				<g>
					<circle class="st2" cx="1185.3" cy="532.2" r="1.3"/>
				</g>
				<g>
					<circle class="st2" cx="1059.8" cy="491.7" r="1"/>
				</g>
				<g>
					<circle class="st2" cx="1001.2" cy="481.2" r="1.5"/>
				</g>
				<g>
					<circle class="st2" cx="951.7" cy="508.6" r="1.2"/>
				</g>
				<g>
					<circle class="st2" cx="890.3" cy="416.2" r="0.8"/>
				</g>
				<g>
					<circle class="st2" cx="830.8" cy="572.5" r="0.8"/>
				</g>
				<g>
					<circle class="st2" cx="805.7" cy="553.3" r="1.4"/>
				</g>
				<g>
					<circle class="st2" cx="733.4" cy="478.1" r="1.4"/>
				</g>
				<g>
					<circle class="st2" cx="679.3" cy="542" r="1.4"/>
				</g>
				<g>
					<circle class="st2" cx="620.8" cy="541.8" r="1.2"/>
				</g>
				<g>
					<circle class="st2" cx="577.6" cy="519.2" r="1.3"/>
				</g>
				<g>
					<circle class="st2" cx="553.3" cy="579.7" r="1.3"/>
				</g>
				<g>
					<circle class="st2" cx="514.8" cy="513.9" r="0.8"/>
				</g>
				<g>
					<circle class="st2" cx="484.2" cy="567.2" r="1.5"/>
				</g>
				<g>
					<circle class="st2" cx="481.3" cy="374.7" r="1.1"/>
				</g>
				<g>
					<circle class="st2" cx="413.6" cy="561.6" r="1.5"/>
				</g>
				<g>
					<circle class="st2" cx="342.4" cy="597.1" r="1"/>
				</g>
				<g>
					<circle class="st2" cx="335.7" cy="501.7" r="1"/>
				</g>
				<g>
					<circle class="st2" cx="294.9" cy="558.8" r="1.2"/>
				</g>
				<g>
					<circle class="st2" cx="269.9" cy="516.8" r="1.1"/>
				</g>
				<g>
					<circle class="st2" cx="199.9" cy="522.7" r="0.8"/>
				</g>
				<g>
					<circle class="st2" cx="171.6" cy="366.3" r="1"/>
				</g>
				<g>
					<circle class="st2" cx="131" cy="574.5" r="1"/>
				</g>
				<g>
					<circle class="st2" cx="97.7" cy="590.9" r="1.1"/>
				</g>
				<g>
					<circle class="st2" cx="72.3" cy="483.3" r="1"/>
				</g>
				<g>
					<circle class="st2" cx="32.9" cy="509.9" r="0.7"/>
				</g>
				<g>
					<circle class="st2" cx="-6" cy="423" r="1.3"/>
				</g>
				<g>
					<circle class="st2" cx="-43.6" cy="452.2" r="0.7"/>
				</g>
				<g>
					<circle class="st2" cx="-63.4" cy="363.3" r="0.9"/>
				</g>
				<g>
					<circle class="st4" cx="-77.4" cy="465.6" r="1"/>
				</g>
				<g>
					<circle class="st4" cx="-86" cy="532.1" r="1.2"/>
				</g>
				<g>
					<circle class="st3" cx="-118.3" cy="556" r="1.4"/>
				</g>
				<g>
					<circle class="st3" cx="-160.9" cy="357.5" r="1.4"/>
				</g>
				<g>
					<circle class="st3" cx="-215.1" cy="460.8" r="1.1"/>
				</g>
				<g>
					<circle class="st3" cx="-217.9" cy="457.5" r="1.5"/>
				</g>
				<g>
					<circle class="st3" cx="-262.8" cy="545" r="1.3"/>
				</g>
				<g>
					<circle class="st3" cx="-267.4" cy="554.8" r="1.2"/>
				</g>
				<g>
					<circle class="st3" cx="-304.1" cy="408.8" r="1.1"/>
				</g>
				<g>
					<circle class="st3" cx="-283.9" cy="519.9" r="1.5"/>
				</g>
				<g>
					<circle class="st3" cx="-244.5" cy="525" r="0.8"/>
				</g>
				<g>
					<circle class="st3" cx="-201.6" cy="484.7" r="0.8"/>
				</g>
				<g>
					<circle class="st3" cx="-173.7" cy="544" r="1"/>
				</g>
				<g>
					<circle class="st3" cx="-179.3" cy="388.4" r="1.3"/>
				</g>
				<g>
					<circle class="st4" cx="-111.3" cy="436.8" r="0.8"/>
				</g>
				<g>
					<circle class="st4" cx="-107.9" cy="346" r="1.5"/>
				</g>
				<g>
					<circle class="st2" cx="-14" cy="437.6" r="1"/>
				</g>
				<g>
					<circle class="st2" cx="51.9" cy="468.4" r="0.8"/>
				</g>
				<g>
					<circle class="st2" cx="48.7" cy="356.3" r="1.3"/>
				</g>
				<g>
					<circle class="st2" cx="60.7" cy="322.1" r="1.3"/>
				</g>
				<g>
					<circle class="st2" cx="99.9" cy="431" r="1.2"/>
				</g>
				<g>
					<circle class="st2" cx="128.4" cy="400.7" r="0.9"/>
				</g>
				<g>
					<circle class="st2" cx="117.6" cy="239.1" r="0.8"/>
				</g>
				<g>
					<circle class="st2" cx="188.3" cy="214.3" r="1"/>
				</g>
				<g>
					<circle class="st2" cx="240.7" cy="251.8" r="1.1"/>
				</g>
				<g>
					<circle class="st2" cx="294.9" cy="260.7" r="1.1"/>
				</g>
				<g>
					<circle class="st2" cx="319.6" cy="205.7" r="1.3"/>
				</g>
				<g>
					<circle class="st2" cx="374.8" cy="222.4" r="1.4"/>
				</g>
				<g>
					<circle class="st2" cx="407.3" cy="207.7" r="1.4"/>
				</g>
				<g>
					<circle class="st2" cx="489.6" cy="236" r="0.9"/>
				</g>
				<g>
					<circle class="st2" cx="563.5" cy="345" r="1.3"/>
				</g>
				<g>
					<circle class="st2" cx="627.2" cy="278.6" r="1.5"/>
				</g>
				<g>
					<circle class="st2" cx="723" cy="214.4" r="1.2"/>
				</g>
				<g>
					<circle class="st2" cx="787.3" cy="132.4" r="0.8"/>
				</g>
				<g>
					<circle class="st2" cx="869.2" cy="262.3" r="1.4"/>
				</g>
				<g>
					<circle class="st2" cx="882.6" cy="164.5" r="1.5"/>
				</g>
				<g>
					<circle class="st2" cx="910.1" cy="113.9" r="1"/>
				</g>
				<g>
					<circle class="st2" cx="925.7" cy="310.6" r="1.2"/>
				</g>
				<g>
					<circle class="st2" cx="995.4" cy="301.1" r="0.8"/>
				</g>
				<g>
					<circle class="st2" cx="1006.2" cy="143.7" r="1"/>
				</g>
				<g>
					<circle class="st2" cx="1054.9" cy="226.3" r="1"/>
				</g>
				<g>
					<circle class="st2" cx="1077.4" cy="332.6" r="1.5"/>
				</g>
				<g>
					<circle class="st2" cx="1202.6" cy="125.7" r="1.4"/>
				</g>
				<g>
					<circle class="st2" cx="1292.7" cy="220.2" r="0.8"/>
				</g>
				<g>
					<circle class="st2" cx="1308.6" cy="325.4" r="1.2"/>
				</g>
				<g>
					<circle class="st2" cx="1321.7" cy="213.9" r="1.1"/>
				</g>
				<g>
					<circle class="st2" cx="1337.3" cy="290.4" r="1"/>
				</g>
				<g>
					<circle class="st2" cx="1353.7" cy="251.1" r="0.9"/>
				</g>
				<g>
					<circle class="st2" cx="1362.1" cy="299.8" r="1.2"/>
				</g>
				<g>
					<circle class="st2" cx="1431.4" cy="242.5" r="0.8"/>
				</g>
				<g>
					<circle class="st2" cx="1465.3" cy="135.5" r="1.4"/>
				</g>
				<g>
					<circle class="st2" cx="1467.8" cy="145.5" r="1.1"/>
				</g>
				<g>
					<circle class="st2" cx="1537.4" cy="195.6" r="0.8"/>
				</g>
				<g>
					<circle class="st2" cx="1588.2" cy="162.8" r="0.9"/>
				</g>
				<g>
					<circle class="st2" cx="1647.3" cy="240.3" r="0.8"/>
				</g>
				<g>
					<circle class="st2" cx="1658.2" cy="202.3" r="0.8"/>
				</g>
				<g>
					<circle class="st2" cx="1666.4" cy="265.2" r="1.2"/>
				</g>
				<g>
					<circle class="st2" cx="1674.6" cy="189.5" r="0.8"/>
				</g>
				<g>
					<circle class="st2" cx="1724.2" cy="274.9" r="0.8"/>
				</g>
				<g>
					<circle class="st2" cx="1739.3" cy="198.3" r="1.4"/>
				</g>
				<g>
					<circle class="st2" cx="1855.6" cy="317.5" r="1.2"/>
				</g>
				<g>
					<circle class="st2" cx="1895.9" cy="115.6" r="0.8"/>
				</g>
				<g>
					<circle class="st2" cx="1964.6" cy="297.5" r="0.7"/>
				</g>
				<g>
					<circle class="st2" cx="2021.6" cy="299.6" r="1"/>
				</g>
				<g>
					<circle class="st2" cx="2091.2" cy="187.8" r="0.9"/>
				</g>
				<g>
					<circle class="st2" cx="2091.8" cy="152.6" r="1.2"/>
				</g>
				<g>
					<circle class="st2" cx="2125" cy="199.9" r="1.2"/>
				</g>
				<g>
					<circle class="st2" cx="2131.2" cy="218.8" r="0.9"/>
				</g>
				<g>
					<circle class="st2" cx="2115.8" cy="192.3" r="1.2"/>
				</g>
				<g>
					<circle class="st2" cx="2077.2" cy="241.5" r="1.1"/>
				</g>
				<g>
					<circle class="st2" cx="2055.6" cy="80" r="1.5"/>
				</g>
				<g>
					<circle class="st2" cx="2031.2" cy="109.7" r="1.4"/>
				</g>
				<g>
					<circle class="st2" cx="2015.4" cy="99.3" r="1.1"/>
				</g>
				<g>
					<circle class="st2" cx="1925.5" cy="273.8" r="1.2"/>
				</g>
				<g>
					<circle class="st2" cx="1909" cy="189" r="1.2"/>
				</g>
				<g>
					<circle class="st2" cx="1874.4" cy="119.6" r="1.1"/>
				</g>
				<g>
					<circle class="st2" cx="1832.3" cy="214.4" r="0.8"/>
				</g>
				<g>
					<circle class="st2" cx="1829.1" cy="140" r="1.2"/>
				</g>
				<g>
					<circle class="st2" cx="1799.1" cy="146.4" r="0.9"/>
				</g>
				<g>
					<circle class="st2" cx="1800" cy="70.1" r="1.2"/>
				</g>
				<g>
					<circle class="st2" cx="1768.5" cy="135.9" r="1.5"/>
				</g>
				<g>
					<circle class="st2" cx="1709.6" cy="262.7" r="1.5"/>
				</g>
				<g>
					<circle class="st2" cx="1644.8" cy="180.6" r="1.5"/>
				</g>
				<g>
					<circle class="st2" cx="1650" cy="106.4" r="1.5"/>
				</g>
				<g>
					<circle class="st2" cx="1632.8" cy="72.2" r="1.1"/>
				</g>
				<g>
					<circle class="st2" cx="1561.3" cy="119.2" r="1.5"/>
				</g>
				<g>
					<circle class="st2" cx="1491.1" cy="78.6" r="1.3"/>
				</g>
				<g>
					<circle class="st2" cx="1480" cy="204.1" r="0.9"/>
				</g>
				<g>
					<circle class="st2" cx="1426.5" cy="184.3" r="1"/>
				</g>
				<g>
					<circle class="st2" cx="1389.9" cy="28.1" r="0.8"/>
				</g>
				<g>
					<circle class="st2" cx="1368.5" cy="46.6" r="1.2"/>
				</g>
				<g>
					<circle class="st2" cx="1333" cy="165.4" r="1.1"/>
				</g>
				<g>
					<circle class="st2" cx="1274.5" cy="28" r="1.3"/>
				</g>
				<g>
					<circle class="st2" cx="1260" cy="55.2" r="1.2"/>
				</g>
				<g>
					<circle class="st2" cx="1194.5" cy="209.5" r="1.5"/>
				</g>
				<g>
					<circle class="st2" cx="1164.3" cy="41.7" r="1.3"/>
				</g>
				<g>
					<circle class="st2" cx="1093.8" cy="123.8" r="1.4"/>
				</g>
				<g>
					<circle class="st2" cx="1039.6" cy="159.8" r="1.3"/>
				</g>
				<g>
					<circle class="st2" cx="981.8" cy="10.8" r="1.4"/>
				</g>
				<g>
					<circle class="st2" cx="913.2" cy="124" r="1.4"/>
				</g>
				<g>
					<circle class="st2" cx="869.2" cy="118.6" r="0.8"/>
				</g>
				<g>
					<circle class="st2" cx="800.6" cy="117.2" r="1.1"/>
				</g>
				<g>
					<circle class="st2" cx="776" cy="195.2" r="0.8"/>
				</g>
				<g>
					<circle class="st2" cx="707.7" cy="32.7" r="0.7"/>
				</g>
				<g>
					<circle class="st2" cx="608.1" cy="116.8" r="0.7"/>
				</g>
				<g>
					<circle class="st2" cx="596.5" cy="134.2" r="1"/>
				</g>
				<g>
					<circle class="st2" cx="559.8" cy="195.7" r="1.1"/>
				</g>
				<g>
					<circle class="st2" cx="546.4" cy="2.3" r="0.9"/>
				</g>
				<g>
					<circle class="st2" cx="508.9" cy="66.9" r="1"/>
				</g>
				<g>
					<circle class="st2" cx="466.1" cy="93.4" r="0.8"/>
				</g>
				<g>
					<circle class="st2" cx="417.6" cy="43" r="1"/>
				</g>
				<g>
					<circle class="st2" cx="369.2" cy="54.6" r="1"/>
				</g>
				<g>
					<circle class="st2" cx="311.9" cy="-18" r="0.7"/>
				</g>
				<g>
					<circle class="st2" cx="247" cy="163.1" r="1.4"/>
				</g>
				<g>
					<circle class="st2" cx="239.9" cy="87.3" r="1.4"/>
				</g>
				<g>
					<circle class="st2" cx="219.7" cy="175.8" r="1.3"/>
				</g>
				<g>
					<circle class="st2" cx="195.7" cy="77.8" r="0.8"/>
				</g>
				<g>
					<circle class="st2" cx="128.7" cy="180.6" r="1"/>
				</g>
				<g>
					<circle class="st2" cx="126.7" cy="105.3" r="1.4"/>
				</g>
				<g>
					<circle class="st2" cx="45.8" cy="180.2" r="0.9"/>
				</g>
				<g>
					<circle class="st2" cx="51" cy="104.3" r="1.5"/>
				</g>
				<g>
					<circle class="st2" cx="62.9" cy="-37.7" r="1.2"/>
				</g>
				<g>
					<circle class="st2" cx="44.1" cy="50.4" r="1.3"/>
				</g>
				<g>
					<circle class="st2" cx="-13" cy="126" r="0.7"/>
				</g>
				<g>
					<circle class="st2" cx="-27.7" cy="108.5" r="1"/>
				</g>
				<g>
					<circle class="st4" cx="-75.3" cy="74.2" r="1.5"/>
				</g>
				<g>
					<circle class="st4" cx="-91.4" cy="19.3" r="1.3"/>
				</g>
				<g>
					<circle class="st4" cx="-112" cy="62.8" r="0.8"/>
				</g>
			</g>
		</g>
		<g style="clip-path:url(#SVGID_00000119833187124831707240000016224182865750963629_);">
			<g>
				<g>
					<g>
						<circle class="st2" cx="339.9" cy="334.3" r="1"/>
					</g>
					<g>
						<circle class="st2" cx="284.4" cy="377.6" r="1.3"/>
					</g>
				</g>
			</g>
		</g>
		<g style="clip-path:url(#SVGID_00000119833187124831707240000016224182865750963629_);">
			<g>
				<g>
					<g>
						<circle class="st2" cx="708.3" cy="308.6" r="1.3"/>
					</g>
					<g>
						<circle class="st2" cx="643.7" cy="347.6" r="1.3"/>
					</g>
					<g>
						<circle class="st2" cx="745.1" cy="428.9" r="0.9"/>
					</g>
				</g>
			</g>
		</g>
		<g style="clip-path:url(#SVGID_00000119833187124831707240000016224182865750963629_);">
			<g>
				<g>
					<g>
						<circle class="st2" cx="849.6" cy="429" r="0.9"/>
					</g>
				</g>
			</g>
		</g>
		<g style="clip-path:url(#SVGID_00000119833187124831707240000016224182865750963629_);">
			<g>
				<g>
					<g>
						<circle class="st2" cx="750.3" cy="267.4" r="1.5"/>
					</g>
					<g>
						<circle class="st2" cx="741.1" cy="266.8" r="1.1"/>
					</g>
				</g>
			</g>
		</g>
		<g style="clip-path:url(#SVGID_00000119833187124831707240000016224182865750963629_);">
			<g>
				<g>
					<g>
						<circle class="st2" cx="1122.6" cy="429.3" r="0.9"/>
					</g>
				</g>
			</g>
		</g>
		<g style="clip-path:url(#SVGID_00000119833187124831707240000016224182865750963629_);">
			<g>
				<g>
					<g>
						<circle class="st2" cx="1268.1" cy="465.2" r="1"/>
					</g>
				</g>
			</g>
		</g>
		<g style="clip-path:url(#SVGID_00000119833187124831707240000016224182865750963629_);">
			<g>
				<g>
					<g>
						<circle class="st2" cx="1200" cy="311.1" r="0.7"/>
					</g>
				</g>
			</g>
		</g>
		<g style="clip-path:url(#SVGID_00000119833187124831707240000016224182865750963629_);">
			<g>
				<g>
					<g>
						<circle class="st2" cx="1217.7" cy="348" r="1.4"/>
					</g>
				</g>
			</g>
		</g>
		<g style="clip-path:url(#SVGID_00000119833187124831707240000016224182865750963629_);">
			<g>
				<g>
					<g>
						<circle class="st2" cx="1214.1" cy="410.9" r="0.8"/>
					</g>
				</g>
			</g>
		</g>
		<g style="clip-path:url(#SVGID_00000119833187124831707240000016224182865750963629_);">
			<g>
				<g>
					<g>
						<circle class="st2" cx="1164.8" cy="237.8" r="0.9"/>
					</g>
				</g>
			</g>
		</g>
		<g style="clip-path:url(#SVGID_00000119833187124831707240000016224182865750963629_);">
			<g>
				<g>
					<g>
						<circle class="st2" cx="1282.2" cy="448.5" r="1"/>
					</g>
				</g>
			</g>
		</g>
		<g style="clip-path:url(#SVGID_00000119833187124831707240000016224182865750963629_);">
			<g>
				<g>
					<g>
						<circle class="st2" cx="1460.7" cy="399.4" r="1.5"/>
					</g>
				</g>
			</g>
		</g>
		<g style="clip-path:url(#SVGID_00000119833187124831707240000016224182865750963629_);">
			<g>
				<g>
					<g>
						<circle class="st2" cx="1561.6" cy="204" r="0.7"/>
					</g>
				</g>
			</g>
		</g>
		<g style="clip-path:url(#SVGID_00000119833187124831707240000016224182865750963629_);">
			<g>
				<g>
					<g>
						<circle class="st2" cx="1458.9" cy="348.1" r="1.5"/>
					</g>
					<g>
						<circle class="st2" cx="1443.3" cy="394.7" r="0.7"/>
					</g>
				</g>
			</g>
		</g>
		<g style="clip-path:url(#SVGID_00000119833187124831707240000016224182865750963629_);">
			<g>
				<g>
					<g>
						<circle class="st2" cx="1634.4" cy="326.9" r="1.4"/>
					</g>
				</g>
			</g>
		</g>
		<g style="clip-path:url(#SVGID_00000119833187124831707240000016224182865750963629_);">
			<g>
				<g>
					<g>
						<circle class="st2" cx="1043.2" cy="769.7" r="1.5"/>
					</g>
					<g>
						<circle class="st2" cx="1146.7" cy="890.1" r="1.3"/>
					</g>
				</g>
			</g>
		</g>
		<g style="clip-path:url(#SVGID_00000119833187124831707240000016224182865750963629_);">
			<g>
				<g>
					<g>
						<circle class="st2" cx="1289.9" cy="808.6" r="1.2"/>
					</g>
					<g>
						<circle class="st2" cx="1210.7" cy="753.6" r="1.1"/>
					</g>
				</g>
			</g>
		</g>
		<g style="clip-path:url(#SVGID_00000119833187124831707240000016224182865750963629_);">
			<g>
				<g>
					<g>
						<circle class="st2" cx="1307.5" cy="774.1" r="1.1"/>
					</g>
					<g>
						<circle class="st2" cx="1291.4" cy="605.2" r="1.4"/>
					</g>
				</g>
			</g>
		</g>
		<g style="clip-path:url(#SVGID_00000119833187124831707240000016224182865750963629_);">
			<g>
				<g>
					<g>
						<circle class="st2" cx="1565.3" cy="893.3" r="1.4"/>
					</g>
					<g>
						<circle class="st2" cx="1567.1" cy="931.9" r="0.8"/>
					</g>
				</g>
			</g>
		</g>
		<g style="clip-path:url(#SVGID_00000119833187124831707240000016224182865750963629_);">
			<g>
				<g>
					<g>
						<circle class="st2" cx="1785.3" cy="743.4" r="1.2"/>
					</g>
				</g>
			</g>
		</g>
		<g style="clip-path:url(#SVGID_00000119833187124831707240000016224182865750963629_);">
			<g>
				<g>
					<g>
						<circle class="st2" cx="1683.1" cy="789.4" r="1"/>
					</g>
				</g>
			</g>
		</g>
		<g style="clip-path:url(#SVGID_00000119833187124831707240000016224182865750963629_);">
			<g>
				<g>
					<g>
						<circle class="st2" cx="1545.2" cy="713.7" r="1.1"/>
					</g>
				</g>
			</g>
		</g>
		<g style="clip-path:url(#SVGID_00000119833187124831707240000016224182865750963629_);">
			<g>
				<g>
					<g>
						<circle class="st2" cx="1519.7" cy="982.6" r="0.9"/>
					</g>
					<g>
						<circle class="st2" cx="1448.4" cy="1068.2" r="1.4"/>
					</g>
					<g>
						<circle class="st2" cx="1430.6" cy="921.9" r="1.5"/>
					</g>
				</g>
			</g>
		</g>
		<g style="clip-path:url(#SVGID_00000119833187124831707240000016224182865750963629_);">
			<g>
				<g>
					<g>
						<circle class="st2" cx="653.2" cy="775.3" r="0.8"/>
					</g>
				</g>
			</g>
		</g>
		<g style="clip-path:url(#SVGID_00000119833187124831707240000016224182865750963629_);">
			<g>
				<g>
					<g>
						<circle class="st2" cx="653" cy="961.1" r="0.9"/>
					</g>
				</g>
			</g>
		</g>
		<g style="clip-path:url(#SVGID_00000119833187124831707240000016224182865750963629_);">
			<g>
				<g>
					<g>
						<circle class="st2" cx="218.5" cy="1116.3" r="1"/>
					</g>
					<g>
						<circle class="st2" cx="184.5" cy="1063.6" r="1.4"/>
					</g>
					<g>
						<circle class="st2" cx="195.8" cy="892.9" r="1.4"/>
					</g>
					<g>
						<circle class="st2" cx="196" cy="977.3" r="1.5"/>
					</g>
					<g>
						<circle class="st2" cx="123" cy="958.5" r="1.5"/>
					</g>
					<g>
						<circle class="st2" cx="107.3" cy="965" r="1.1"/>
					</g>
					<g>
						<circle class="st2" cx="195.8" cy="978.4" r="1.4"/>
					</g>
					<g>
						<circle class="st2" cx="111.9" cy="1069.5" r="1.5"/>
					</g>
					<g>
						<circle class="st2" cx="38.9" cy="1050.7" r="1.5"/>
					</g>
					<g>
						<circle class="st2" cx="23.2" cy="1057.2" r="1.1"/>
					</g>
					<g>
						<circle class="st2" cx="111.7" cy="1070.6" r="1.4"/>
					</g>
					<g>
						<circle class="st2" cx="386.5" cy="1100.3" r="1.5"/>
					</g>
					<g>
						<circle class="st2" cx="313.5" cy="1081.5" r="1.5"/>
					</g>
					<g>
						<circle class="st2" cx="297.9" cy="1088" r="1.1"/>
					</g>
					<g>
						<circle class="st2" cx="386.4" cy="1101.4" r="1.4"/>
					</g>
					<g>
						<circle class="st2" cx="749" cy="1094.5" r="1.5"/>
					</g>
					<g>
						<circle class="st2" cx="676" cy="1075.7" r="1.5"/>
					</g>
					<g>
						<circle class="st2" cx="660.3" cy="1082.2" r="1.1"/>
					</g>
					<g>
						<circle class="st2" cx="748.8" cy="1095.6" r="1.4"/>
					</g>
					<g>
						<circle class="st2" cx="970.1" cy="1061.2" r="1.5"/>
					</g>
					<g>
						<circle class="st2" cx="227.3" cy="711" r="1.5"/>
					</g>
					<g>
						<circle class="st2" cx="211.6" cy="717.5" r="1.1"/>
						<g>
							<circle class="st2" cx="115.5" cy="723.5" r="1.5"/>
						</g>
						<circle class="st2" cx="99.8" cy="730" r="1.1"/>
						<g>
							<circle class="st2" cx="333.2" cy="687" r="1.5"/>
						</g>
						<circle class="st2" cx="317.5" cy="693.5" r="1.1"/>
					</g>
					<g>
						<circle class="st2" cx="969.9" cy="1062.3" r="1.4"/>
					</g>
					<g>
						<circle class="st2" cx="134.1" cy="1079.6" r="0.9"/>
					</g>
				</g>
			</g>
		</g>
		<g style="clip-path:url(#SVGID_00000119833187124831707240000016224182865750963629_);">
			<circle class="st2" cx="920.6" cy="263.5" r="4.8"/>
		</g>
		<g style="clip-path:url(#SVGID_00000119833187124831707240000016224182865750963629_);">
			<circle class="st2" cx="542.6" cy="592.2" r="4.8"/>
		</g>
		<g style="clip-path:url(#SVGID_00000119833187124831707240000016224182865750963629_);">
			
				<ellipse transform="matrix(0.1602 -0.9871 0.9871 0.1602 -14.7123 1758.7078)" class="st2" cx="1026.2" cy="888" rx="4.8" ry="4.8"/>
		</g>
		<g style="clip-path:url(#SVGID_00000119833187124831707240000016224182865750963629_);">
			<circle class="st2" cx="1338.6" cy="718.9" r="4.8"/>
		</g>
		<g style="clip-path:url(#SVGID_00000119833187124831707240000016224182865750963629_);">
			<circle class="st2" cx="1510.6" cy="1163.2" r="6.4"/>
		</g>
		<g style="clip-path:url(#SVGID_00000119833187124831707240000016224182865750963629_);">
			<circle class="st2" cx="168.4" cy="527.7" r="4.8"/>
		</g>
		<g style="clip-path:url(#SVGID_00000119833187124831707240000016224182865750963629_);">
			<circle class="st2" cx="366.6" cy="467.7" r="4.8"/>
		</g>
		<g style="clip-path:url(#SVGID_00000119833187124831707240000016224182865750963629_);">
			<g>
				<g>
					<g>
						<circle class="st3" cx="220.2" cy="1413.6" r="1"/>
					</g>
					<g>
						<circle class="st3" cx="186.4" cy="1360.5" r="1.4"/>
					</g>
					<g>
						<circle class="st2" cx="197.7" cy="1189.7" r="1.4"/>
					</g>
					<g>
						<circle class="st3" cx="136" cy="1376.4" r="0.9"/>
					</g>
				</g>
			</g>
		</g>
		<g style="clip-path:url(#SVGID_00000119833187124831707240000016224182865750963629_);">
			<circle class="st2" cx="725.8" cy="965.5" r="4.8"/>
		</g>
		<g style="clip-path:url(#SVGID_00000119833187124831707240000016224182865750963629_);">
			<circle class="st2" cx="1063.9" cy="420.9" r="4.8"/>
		</g>
		<g style="clip-path:url(#SVGID_00000119833187124831707240000016224182865750963629_);">
			<circle class="st2" cx="1355.3" cy="390.3" r="4.8"/>
		</g>
		<g style="clip-path:url(#SVGID_00000119833187124831707240000016224182865750963629_);">
			<g>
				<g>
					<g>
						<circle class="st2" cx="541.9" cy="999.1" r="1"/>
					</g>
					<g>
						<circle class="st2" cx="508" cy="946" r="1.4"/>
					</g>
					<g>
						<circle class="st2" cx="519.3" cy="775.2" r="1.4"/>
					</g>
					<g>
						<circle class="st2" cx="457.7" cy="961.9" r="0.9"/>
					</g>
				</g>
			</g>
		</g>
		<g style="clip-path:url(#SVGID_00000119833187124831707240000016224182865750963629_);">
			<g>
				<g>
					<g>
						<circle class="st2" cx="298.8" cy="958.5" r="1.2"/>
					</g>
				</g>
			</g>
		</g>
	</g>
</g>
</svg>
