<?xml version="1.0" encoding="utf-8"?>
<!-- Generator: Adobe Illustrator 27.5.0, SVG Export Plug-In . SVG Version: 6.00 Build 0)  -->
<svg version="1.1" id="Vrstva_1" xmlns="http://www.w3.org/2000/svg" xmlns:xlink="http://www.w3.org/1999/xlink" x="0px" y="0px"
	 viewBox="0 0 965 232.4" style="enable-background:new 0 0 965 232.4;" xml:space="preserve">
<style type="text/css">
	.st0{fill-rule:evenodd;clip-rule:evenodd;}
	.st1{fill-rule:evenodd;clip-rule:evenodd;fill:#EBEBEB;}
	.st2{enable-background:new    ;}
</style>
<g>
	<path class="st0" d="M205.8,117.9l5.2-34.7l-26.9,34.7C184.1,117.9,205.8,117.9,205.8,117.9z M202.5,138.8h-34.7l-12.1,15.9h-31.1
		l81.8-96.4h33.1l-7.9,96.4h-31.9L202.5,138.8z M113.8,52.9L78,125.6h7.4c6.4,0,11.3-0.9,14.9-2.8s7.4-5.2,11.2-9.9
		c3.8-4.7,8.4-12.5,13.6-23.2c7-14.1,10.1-23.8,9.2-28.9c-0.9-5.2-5.2-7.8-13.1-7.8L113.8,52.9C113.8,53,113.8,52.9,113.8,52.9z
		 M98.4,22.6h45.1c8.9,0,15.3,1.7,19.1,4.8c3.8,3.3,6.1,8,6.6,14.1s-0.4,13.3-2.8,21.4c-2.4,8.2-5.9,16.7-10.3,25.9
		c-7,14.3-13.6,25.4-19.9,33.1c-6.2,7.9-12.9,14.4-19.6,19.8c-6.9,5.4-13.1,8.8-18.9,10.6c-7.9,2.4-14.4,2.3-19.9,2.3l-44.6,0.2
		L98.4,22.6z"/>
	<polygon class="st0" points="286.2,58.3 316.7,58.3 282.9,130.9 330.3,130.9 319.2,154.7 241.5,154.7 	"/>
	<polygon class="st0" points="379.1,58.3 409.6,58.3 364.7,154.7 334.3,154.7 	"/>
	<polygon class="st0" points="884.6,45.5 901,22.5 191,22.5 174.6,45.6 437.9,45.5 387,154.7 417.5,154.7 468.4,45.5 	"/>
	<path class="st0" d="M615.4,117.9l5.2-34.7l-26.9,34.7C593.7,117.9,615.4,117.9,615.4,117.9z M612.1,138.8h-34.7l-12.1,15.9h-31.1
		L616,58.3h33.2l-7.9,96.4h-31.9L612.1,138.8z M494.9,97.3h12.9c1.4,0,4.2-0.4,8.7-1.3c2.2-0.4,4.3-1.4,6.4-3.1
		c2-1.7,3.6-3.4,4.5-5.6c1.4-3.1,1.5-5.5,0.3-7.1s-4.6-2.5-10.2-2.5h-13.4L494.9,97.3z M437.6,154.7l44.9-96.4h50.6
		c9.4,0,16.2,0.8,20.4,2.4c4.2,1.5,6.9,4.5,7.9,8.8c1,4.2,0.1,9.4-2.7,15.5c-2.5,5.4-5.9,9.9-9.9,13.9c-4.1,3.8-8.8,7-14,9.4
		c-3.3,1.5-7.5,2.8-12.5,3.8c3.1,1.1,5.1,2.4,6.2,3.6c0.8,0.8,1.5,2.4,2.5,5.1c0.9,2.5,1.4,4.6,1.5,6l1.7,27.9h-34.3l-2.5-29.4
		c-0.3-3.8-1-6.2-2-7.4c-1.5-1.5-3.7-2.2-6.4-2.2h-2.7l-18.2,39.1L437.6,154.7L437.6,154.7z"/>
	<polygon class="st0" points="696.1,58.3 724.4,58.3 736.6,111.6 761.5,58.3 790.2,58.3 745.3,154.7 716.6,154.7 704.4,101.8 
		679.8,154.7 651.2,154.7 	"/>
	<path class="st0" d="M775,122.8l29.7-1.8c-1.5,4.6-1.9,8.2-1,10.6c1.3,4,4.8,5.9,10.7,5.9c4.3,0,8.2-1,11.5-2.9
		c3.3-2,5.5-4.3,6.8-6.9c1.1-2.5,1.1-4.7-0.3-6.8c-1.3-1.9-5.6-3.8-13-5.6c-12-2.9-19.6-6.9-23.1-11.7c-3.4-4.8-3.4-11.1,0.1-18.6
		c2.3-5,6-9.7,11-14c5-4.5,11-7.9,18.1-10.5c7-2.5,15.7-3.8,25.9-3.8c12.6,0,21.2,2.3,25.6,6.9c4.5,4.6,5,11.9,1.7,21.8l-29.4,1.7
		c1.3-4.3,1.1-7.5-0.4-9.4s-4.5-2.9-8.7-2.9c-3.6,0-6.5,0.8-9,2.2c-2.4,1.4-4.2,3.3-5.2,5.4c-0.8,1.5-0.6,2.9,0.3,4.1
		c0.9,1.3,3.7,2.4,8.5,3.6c12,2.8,20.1,5.6,24.6,8.5s7,6.4,7.5,10.7c0.6,4.2-0.3,9-2.7,14.3c-2.9,6.1-7.3,11.9-13.1,17.1
		s-12.6,9.2-20.1,11.9s-16.1,4.1-25.6,4.1c-16.7,0-26.9-3.2-30.3-9.4C771.2,140.5,771.3,132.5,775,122.8"/>
	<path class="st0" d="M924.8,23c6.5,0,11.7,5.2,11.7,11.7s-5.2,11.7-11.7,11.7s-11.7-5.2-11.7-11.7C913.2,28.3,918.4,23,924.8,23
		 M924.8,24.9c5.4,0,9.7,4.3,9.7,9.7s-4.3,9.7-9.7,9.7s-9.7-4.3-9.7-9.7S919.4,24.9,924.8,24.9z M919.4,40.7V28.6h5.1
		c1.3,0,2.2,0.1,2.8,0.4s1,0.6,1.4,1.1s0.5,1.1,0.5,1.9c0,0.9-0.3,1.7-0.8,2.3s-1.3,1-2.4,1.1c0.5,0.3,1,0.6,1.3,1
		c0.4,0.4,0.8,1,1.4,1.9l1.5,2.3h-2.9l-1.8-2.7c-0.6-0.9-1-1.5-1.3-1.8s-0.5-0.4-0.8-0.5c-0.2,0-0.6,0-1.2,0h-0.4v5.1
		C921.8,40.7,919.4,40.7,919.4,40.7z M921.8,33.7h1.8c1.1,0,1.9,0,2.2-0.1s0.5-0.3,0.6-0.5s0.3-0.5,0.3-0.9c0-0.4-0.1-0.8-0.4-1
		c-0.3-0.3-0.5-0.4-0.9-0.5c-0.3,0-0.8,0-1.8,0h-1.8L921.8,33.7L921.8,33.7z"/>
	<g>
		<path class="st1" d="M201.8,111.5l5.2-34.7l-26.8,34.7H201.8z M198.5,132.4h-34.7l-12.1,15.9h-31.1l81.8-96.4h33.1l-7.9,96.4
			h-31.9L198.5,132.4z M109.8,46.5L74,119.3h7.4c6.4,0,11.3-0.9,14.9-2.8s7.4-5.2,11.2-9.9s8.4-12.5,13.6-23.2
			c7-14.1,10.1-23.8,9.2-28.9c-0.9-5.2-5.2-7.8-13.1-7.8h-7.4C109.8,46.7,109.8,46.5,109.8,46.5z M94.4,16.3h45.1
			c8.9,0,15.3,1.7,19.1,4.8c3.8,3.3,6.1,8,6.6,14.1s-0.4,13.3-2.8,21.4s-5.9,16.7-10.3,25.9c-7,14.3-13.6,25.4-19.9,33.1
			c-6.2,7.9-12.9,14.4-19.6,19.8c-6.9,5.4-13.1,8.8-18.9,10.6c-7.9,2.4-14.4,2.3-19.9,2.3l-44.6,0.1L94.4,16.3z"/>
		<polygon class="st1" points="282.3,52 312.7,52 279,124.5 326.4,124.5 315.3,148.3 237.5,148.3 		"/>
		<polygon class="st1" points="375.2,52 405.6,52 360.8,148.3 330.3,148.3 		"/>
		<polygon class="st1" points="880.6,39.1 897.1,16.1 187.1,16.1 170.6,39.2 433.9,39.1 383.1,148.3 413.5,148.3 464.4,39.1 		"/>
		<path class="st1" d="M611.5,111.5l5.2-34.7l-26.9,34.7H611.5z M608.2,132.4h-34.7l-12.1,15.9h-31.1l81.8-96.4h33.1l-7.9,96.4
			h-31.9L608.2,132.4z M490.9,91h12.9c1.4,0,4.2-0.4,8.7-1.3c2.2-0.4,4.3-1.4,6.4-3.1c2-1.7,3.6-3.4,4.5-5.6
			c1.4-3.1,1.5-5.5,0.3-7.1c-1.3-1.7-4.6-2.5-10.2-2.5h-13.4L490.9,91z M433.7,148.3l44.9-96.4h50.6c9.4,0,16.2,0.8,20.4,2.4
			c4.2,1.5,6.9,4.5,7.9,8.8c1,4.2,0.1,9.4-2.7,15.5c-2.5,5.4-5.9,9.9-9.9,13.9c-4.1,3.8-8.8,7-14,9.4c-3.3,1.5-7.5,2.8-12.5,3.8
			c3.1,1.1,5.1,2.4,6.2,3.6c0.8,0.8,1.5,2.4,2.5,5.1c0.9,2.5,1.4,4.6,1.5,6l1.7,27.9H496l-2.5-29.4c-0.3-3.8-1-6.2-2-7.4
			c-1.5-1.5-3.7-2.2-6.4-2.2h-2.7l-18.3,39.3h-30.5v-0.3H433.7z"/>
		<polygon class="st1" points="692.1,52 720.4,52 732.7,105.2 757.5,52 786.2,52 741.3,148.3 712.7,148.3 700.4,95.4 675.8,148.3 
			647.3,148.3 		"/>
		<path class="st1" d="M771,116.5l29.7-1.8c-1.5,4.6-1.9,8.2-1,10.6c1.3,4,4.8,5.9,10.7,5.9c4.3,0,8.2-1,11.5-2.9
			c3.3-2,5.5-4.3,6.8-6.9c1.1-2.5,1.1-4.7-0.3-6.8c-1.3-1.9-5.6-3.8-13-5.6c-12-2.9-19.6-6.9-23.1-11.7c-3.4-4.8-3.4-11.1,0.1-18.6
			c2.3-5,6-9.7,11-14c5-4.5,11-7.9,18.1-10.5c7-2.5,15.7-3.8,25.9-3.8c12.6,0,21.2,2.3,25.6,6.9c4.5,4.6,5,11.9,1.7,21.8l-29.5,1.5
			c1.3-4.3,1.1-7.5-0.4-9.4s-4.5-2.9-8.7-2.9c-3.6,0-6.5,0.8-9,2.2c-2.4,1.4-4.2,3.3-5.2,5.4c-0.8,1.5-0.6,2.9,0.3,4.1
			c0.9,1.3,3.7,2.4,8.5,3.6c12,2.8,20.1,5.6,24.6,8.5s7,6.4,7.5,10.7c0.6,4.2-0.3,9-2.7,14.3c-2.9,6.1-7.3,11.9-13.1,17.1
			c-5.9,5.2-12.6,9.2-20.1,11.9s-16.1,4.1-25.6,4.1c-16.7,0-26.9-3.2-30.3-9.4C767.2,134.2,767.3,126.1,771,116.5"/>
		<path class="st1" d="M923.3,22c6.5,0,11.7,5.2,11.7,11.7s-5.2,11.7-11.7,11.7s-11.7-5.2-11.7-11.7C911.7,27.2,916.9,22,923.3,22
			 M923.3,23.9c5.4,0,9.7,4.3,9.7,9.7s-4.3,9.7-9.7,9.7s-9.7-4.3-9.7-9.7C913.6,28.3,918,23.9,923.3,23.9z M918,39.7V27.6h5.1
			c1.3,0,2.2,0.1,2.8,0.4s1,0.6,1.4,1.1s0.5,1.1,0.5,1.9c0,0.9-0.3,1.7-0.8,2.3s-1.3,1-2.4,1.1c0.5,0.3,1,0.6,1.3,1
			c0.4,0.4,0.8,1,1.4,1.9l1.5,2.3h-2.9l-1.8-2.7c-0.6-0.9-1-1.5-1.3-1.8s-0.5-0.4-0.8-0.5s-0.6-0.1-1.3-0.1h-0.4v5.1
			C920.4,39.7,918,39.7,918,39.7z M920.4,32.7h1.8c1.1,0,1.9,0,2.2-0.1s0.5-0.3,0.6-0.5c0.1-0.3,0.3-0.5,0.3-0.9s-0.1-0.8-0.4-1
			c-0.3-0.3-0.5-0.4-0.9-0.5c-0.3,0-0.8,0-1.8,0h-1.8L920.4,32.7L920.4,32.7z"/>
	</g>
</g>
<g class="st2">
	<path d="M33.4,174h3.5v39.4h27.8v2.8H33.4V174z"/>
	<path d="M75.5,195.1c0-12.2,10.7-21.4,25.1-21.4c14.3,0,25.1,9.1,25.1,21.4c0,12.3-10.8,21.4-25.1,21.4
		C86.2,216.5,75.5,207.3,75.5,195.1z M122.1,195.1c0-10.7-9.2-18.5-21.5-18.5c-12.3,0-21.6,7.9-21.6,18.5c0,10.7,9.2,18.5,21.6,18.5
		C112.9,213.6,122.1,205.8,122.1,195.1z"/>
	<path d="M179.7,195.3h3.4v15.8c-4.3,3.6-10.6,5.4-17.2,5.4c-14.5,0-25.2-9.1-25.2-21.4c0-12.3,10.7-21.4,25.3-21.4
		c7,0,13.1,1.9,17.4,5.8l-2.2,2c-4.2-3.6-9.2-5-15.1-5c-12.5,0-21.8,7.9-21.8,18.5c0,10.5,9.3,18.5,21.8,18.5
		c5.1,0,9.8-1.1,13.7-3.9V195.3z"/>
	<path d="M205.9,174h3.5v42.1h-3.5V174z"/>
	<path d="M228.8,210.8l1.6-2.3c3.3,3,9.4,5.3,15.9,5.3c9.6,0,13.9-3.7,13.9-8.2c0-12.6-30.1-5.1-30.1-20.6c0-6,5.2-11.2,17.1-11.2
		c5.3,0,10.8,1.4,14.5,3.8l-1.3,2.5c-4-2.4-8.9-3.6-13.2-3.6c-9.4,0-13.6,3.8-13.6,8.4c0,12.6,30.1,5.2,30.1,20.5
		c0,6-5.4,11.1-17.4,11.1C239.2,216.5,232.3,214.1,228.8,210.8z"/>
	<path d="M291.5,176.8h-17.4V174h38.3v2.8h-17.4v39.4h-3.5V176.8z"/>
	<path d="M328.5,174h3.5v42.1h-3.5V174z"/>
	<path d="M351.6,195.1c0-12.3,10.7-21.4,25-21.4c6.8,0,13,1.9,17.2,5.8l-2.2,2c-4.1-3.6-9.2-5-14.8-5c-12.3,0-21.6,7.9-21.6,18.5
		s9.3,18.5,21.6,18.5c5.7,0,10.7-1.5,14.8-5.1l2.2,2c-4.2,3.9-10.3,5.9-17.2,5.9C362.3,216.5,351.6,207.4,351.6,195.1z"/>
	<path d="M433.1,210.8l1.6-2.3c3.3,3,9.4,5.3,15.9,5.3c9.6,0,13.9-3.7,13.9-8.2c0-12.6-30.1-5.1-30.1-20.6c0-6,5.2-11.2,17.1-11.2
		c5.3,0,10.8,1.4,14.5,3.8l-1.3,2.5c-4-2.4-8.9-3.6-13.2-3.6c-9.4,0-13.6,3.8-13.6,8.4c0,12.6,30.1,5.2,30.1,20.5
		c0,6-5.4,11.1-17.4,11.1C443.5,216.5,436.6,214.1,433.1,210.8z"/>
	<path d="M524.1,188.2c0,8.8-7.3,14.1-19.4,14.1h-13.8v13.8h-3.5V174h17.3C516.8,174,524.1,179.3,524.1,188.2z M520.5,188.2
		c0-7.3-5.5-11.4-15.9-11.4h-13.8v22.8h13.8C515,199.6,520.5,195.5,520.5,188.2z"/>
	<path d="M576.6,213.4v2.8h-33.3V174h32.3v2.8h-28.7v16.6h25.7v2.7h-25.7v17.3H576.6z"/>
	<path d="M596.8,174h19.1c15.3,0,25.6,8.8,25.6,21.1c0,12.3-10.3,21.1-25.6,21.1h-19.1V174z M615.6,213.4c13.6,0,22.4-7.6,22.4-18.3
		s-8.8-18.3-22.4-18.3h-15.3v36.6H615.6z"/>
	<path d="M661.1,174h3.5v42.1h-3.5V174z"/>
	<path d="M698.1,176.8h-17.4V174H719v2.8h-17.4v39.4h-3.5V176.8z"/>
	<path d="M735,174h3.5v42.1H735V174z"/>
	<path d="M758.1,195.1c0-12.2,10.7-21.4,25.1-21.4c14.3,0,25.1,9.1,25.1,21.4c0,12.3-10.8,21.4-25.1,21.4
		C768.8,216.5,758.1,207.3,758.1,195.1z M804.7,195.1c0-10.7-9.2-18.5-21.5-18.5c-12.3,0-21.6,7.9-21.6,18.5
		c0,10.7,9.2,18.5,21.6,18.5C795.5,213.6,804.7,205.8,804.7,195.1z"/>
	<path d="M867.2,174v42.1h-2.9l-32.9-36.6v36.6h-3.5V174h3l32.8,36.6V174H867.2z"/>
</g>
</svg>
