<?xml version="1.0" encoding="UTF-8" standalone="no"?>
<svg
   id="Layer_1"
   version="1.1"
   viewBox="0 0 156.49 29.78"
   width="156.49001"
   height="29.780001"
   xmlns="http://www.w3.org/2000/svg"
   xmlns:svg="http://www.w3.org/2000/svg">
  <!-- Generator: Adobe Illustrator 29.1.0, SVG Export Plug-In . SVG Version: 2.1.0 Build 142)  -->
  <defs
     id="defs1">
    <style
       id="style1">
      .st0 {
        fill: #f16623;
      }

      .st1 {
        fill: #fff;
      }
    </style>
  </defs>
  <g
     id="g6"
     transform="translate(-8.93,-3.85)">
    <g
       id="g2">
      <path
         class="st1"
         d="m 45.89,15.43 v 5.28 H 51 c 0.19,0 0.35,-0.06 0.49,-0.2 0.13,-0.13 0.2,-0.29 0.2,-0.49 V 16.1 c 0,-0.19 -0.07,-0.36 -0.2,-0.49 -0.13,-0.13 -0.29,-0.2 -0.49,-0.2 h -5.11 z m -3.23,-2.9 h 9.37 c 0.79,0 1.48,0.28 2.04,0.85 0.57,0.57 0.85,1.25 0.85,2.04 v 5.28 c 0,0.79 -0.28,1.48 -0.85,2.04 -0.57,0.57 -1.25,0.85 -2.04,0.85 H 42.66 V 12.52 Z"
         id="path1" />
      <path
         class="st1"
         d="m 56.28,12.53 h 3.24 v 7.49 c 0,0.19 0.07,0.36 0.2,0.49 0.13,0.13 0.29,0.2 0.49,0.2 h 4.43 c 0.19,0 0.36,-0.06 0.49,-0.2 0.13,-0.13 0.2,-0.29 0.2,-0.49 v -7.49 h 3.24 v 8.17 c 0,0.79 -0.28,1.48 -0.85,2.04 -0.57,0.57 -1.25,0.85 -2.04,0.85 h -6.47 c -0.79,0 -1.48,-0.28 -2.04,-0.85 -0.57,-0.57 -0.85,-1.25 -0.85,-2.04 v -8.17 z"
         id="path2" />
    </g>
    <polygon
       class="st1"
       points="69.82,23.6 69.82,12.53 73.05,12.53 73.05,16.69 73.53,16.69 78.23,12.53 82.08,12.53 75.95,18.07 82.15,23.6 78.3,23.6 73.55,19.44 73.05,19.44 73.05,23.6 "
       id="polygon2" />
    <path
       class="st1"
       d="m 90.83,15.54 -2.01,3.73 h 4.02 z m -1.61,-3.01 h 3.24 l 6.22,11.07 h -3.51 l -1.04,-1.94 h -6.57 l -1.04,1.94 h -3.51 l 6.22,-11.07 z"
       id="path3" />
    <polygon
       class="st1"
       points="104.63,23.6 101.39,23.6 101.39,15.29 96.88,15.29 96.88,12.53 109.14,12.53 109.14,15.29 104.63,15.29 "
       id="polygon3" />
    <path
       class="st1"
       d="m 113.57,15.43 v 2.04 h 5.11 c 0.19,0 0.35,-0.07 0.49,-0.2 0.13,-0.13 0.2,-0.29 0.2,-0.49 V 16.1 c 0,-0.19 -0.07,-0.36 -0.2,-0.49 -0.13,-0.13 -0.29,-0.2 -0.49,-0.2 h -5.11 z m -3.24,-2.9 h 9.37 c 0.79,0 1.48,0.28 2.04,0.85 0.57,0.57 0.85,1.25 0.85,2.04 v 2.04 c 0,0.65 -0.19,1.23 -0.58,1.74 -0.39,0.51 -0.88,0.86 -1.48,1.04 l 2.49,3.36 h -3.68 l -2.38,-3.24 h -3.39 v 3.24 h -3.24 z"
       id="path4" />
    <path
       class="st1"
       d="m 132.05,15.54 -2.01,3.73 h 4.02 z m -1.62,-3.01 h 3.24 l 6.22,11.07 h -3.51 l -1.04,-1.94 h -6.57 l -1.04,1.94 h -3.51 l 6.22,-11.07 z"
       id="path5" />
    <path
       class="st1"
       d="m 144.31,15.43 v 5.28 h 5.11 c 0.19,0 0.35,-0.06 0.49,-0.2 0.13,-0.13 0.2,-0.29 0.2,-0.49 V 16.1 c 0,-0.19 -0.07,-0.36 -0.2,-0.49 -0.13,-0.13 -0.29,-0.2 -0.49,-0.2 h -5.11 z m -3.24,-2.9 h 9.37 c 0.79,0 1.48,0.28 2.04,0.85 0.57,0.57 0.85,1.25 0.85,2.04 v 5.28 c 0,0.79 -0.28,1.48 -0.85,2.04 -0.57,0.57 -1.25,0.85 -2.04,0.85 h -9.37 V 12.52 Z"
       id="path6" />
    <polygon
       class="st1"
       points="154.61,12.53 154.61,23.6 165.42,23.6 165.42,20.84 157.85,20.84 157.85,19.46 165.08,19.46 165.08,16.7 157.85,16.7 157.85,15.29 165.42,15.29 165.42,12.53 "
       id="polygon6" />
  </g>
  <g
     id="g8"
     transform="translate(-8.93,-3.85)">
    <path
       class="st0"
       d="m 29.5,11.18 v -0.42 c 0,-3.8 -3.11,-6.91 -6.91,-6.91 L 10.57,3.88 c -0.89,0 -1.62,0.73 -1.62,1.63 v 5.68 h 20.56 z"
       id="path7" />
    <path
       class="st0"
       d="m 21.88,16.5 v 9.47 H 16.55 V 16.5 H 8.93 v 15.51 c 0,0.89 0.73,1.62 1.62,1.62 L 22.58,33.6 c 3.8,0 6.91,-3.11 6.91,-6.91 v -10.2 h -7.62 z"
       id="path8" />
  </g>
</svg>
