<?xml version="1.0" encoding="UTF-8"?>
<svg id="Vrstva_1" data-name="Vrstva 1" xmlns="http://www.w3.org/2000/svg" version="1.1" viewBox="0 0 689.7 245.2">
  <defs>
    <style>
      .cls-1 {
        fill: #fff;
        stroke-width: 0px;
      }
    </style>
  </defs>
  <g>
    <path class="cls-1" d="M335.7,87.2V21.5h21.3v61.7c0,9.8,8.2,17.4,18.8,17.4s19-7.6,19-17.4V21.5h21.3v65.7c0,18.2-17.4,32.2-40.3,32.2s-40.1-14-40.1-32.2Z"/>
    <path class="cls-1" d="M507.9,91.7c0,17.1-12.6,26.4-28.7,26.4h-44.6V21.5h40.9c16.3,0,29.2,9.8,29.2,26.9s-4.7,16.9-11.9,20.8c9,3.5,15.1,10.8,15.1,22.5ZM472.9,40.3h-17.1v20.8h17.1c5.8,0,10.5-4.8,10.5-10.5s-4.7-10.3-10.5-10.3ZM486.6,89c0-5.6-4.5-10.5-10.5-10.5h-20.3v20.8h20.3c6,0,10.5-4.5,10.5-10.3Z"/>
    <path class="cls-1" d="M575.2,99.9h-36.1l-6,18.2h-22.7l34.8-96.6h23.8l34.8,96.6h-22.7l-6-18.2ZM569.6,82.2l-12.4-38.3-12.4,38.3h24.8Z"/>
    <path class="cls-1" d="M667,93.3c0,15.9-11,26.1-30.8,26.1s-28.2-8.1-30.3-21.1l20.9-6.1c.8,5,4.5,8.5,9.3,8.5s9.5-4.3,9.5-10.1v-50.3h-31.7v-18.8h53v71.8Z"/>
  </g>
  <g>
    <path class="cls-1" d="M25,126.4h31.9c26.6,0,48.3,21.6,48.3,48.3s-21.7,48.3-48.3,48.3h-31.9v-96.6ZM56.7,204.2c15.3,0,27.2-12.7,27.2-29.5s-11.9-29.5-27.2-29.5h-10.5v59h10.5Z"/>
    <path class="cls-1" d="M120.2,192.2v-65.7h21.3v61.7c0,9.8,8.2,17.4,18.8,17.4s19-7.6,19-17.4v-61.7h21.3v65.7c0,18.2-17.4,32.2-40.3,32.2s-40.1-14-40.1-32.2Z"/>
    <path class="cls-1" d="M212.1,202.8l17.6-10.9c3.5,7.6,10.5,12.6,19.3,12.6s11.9-3.5,11.9-8.9c0-16.9-44.6-9-44.6-41.9s15.6-28.5,30.9-28.5,22.7,5.5,29.8,13.7l-14.2,13.5c-4.8-5.3-10.3-8.4-15.8-8.4s-9.3,2.6-9.3,8.1c0,16.8,44.5,7.9,44.5,43.7s-15.3,28.7-33.3,28.7-30.4-9.5-36.7-21.6Z"/>
    <path class="cls-1" d="M348.6,204.9h-36.1l-6,18.2h-22.7l34.8-96.6h23.8l34.8,96.6h-22.7l-6-18.2ZM342.9,187.2l-12.4-38.3-12.4,38.3h24.8Z"/>
    <path class="cls-1" d="M475.2,126.4v96.6h-21.9l-47.4-64.1v64.1h-21.3v-96.6h21.9l47.5,63.9v-63.9h21.1Z"/>
  </g>
  <polygon class="cls-1" points="322 21.5 251.9 21.5 251.9 40.3 289 40.3 258.3 98.4 270.7 98.4 260.1 118.1 322 118.1 322 99.3 281.3 99.3 322 21.5"/>
  <polyline class="cls-1" points="247.9 118.2 235.5 118.2 224.8 98.4 237.4 98.4"/>
</svg>
