<?xml version="1.0" encoding="UTF-8" standalone="no"?>
<!-- Generator: Adobe Illustrator 28.2.0, SVG Export Plug-In . SVG Version: 6.00 Build 0)  -->

<svg
   version="1.1"
   id="Layer_1"
   x="0px"
   y="0px"
   viewBox="0 0 100 22.6"
   style="enable-background:new 0 0 100 22.6;"
   xml:space="preserve"
   sodipodi:docname="fincross-logo.svg"
   inkscape:version="1.4.2 (ebf0e940d0, 2025-05-08)"
   xmlns:inkscape="http://www.inkscape.org/namespaces/inkscape"
   xmlns:sodipodi="http://sodipodi.sourceforge.net/DTD/sodipodi-0.dtd"
   xmlns="http://www.w3.org/2000/svg"
   xmlns:svg="http://www.w3.org/2000/svg"><defs
   id="defs11" /><sodipodi:namedview
   id="namedview11"
   pagecolor="#505050"
   bordercolor="#eeeeee"
   borderopacity="1"
   inkscape:showpageshadow="0"
   inkscape:pageopacity="0"
   inkscape:pagecheckerboard="0"
   inkscape:deskcolor="#505050"
   inkscape:zoom="11.39"
   inkscape:cx="50"
   inkscape:cy="11.325724"
   inkscape:window-width="1920"
   inkscape:window-height="1009"
   inkscape:window-x="0"
   inkscape:window-y="0"
   inkscape:window-maximized="1"
   inkscape:current-layer="Layer_1" />
<style
   type="text/css"
   id="style1">
	.st0{fill:#201D21;}
</style>
<g
   id="g11"
   style="fill:#dfe2de;fill-opacity:1">
	<g
   id="g10"
   style="fill:#dfe2de;fill-opacity:1">
		<g
   id="g9"
   style="fill:#dfe2de;fill-opacity:1">
			<rect
   x="11.1"
   y="5.4"
   class="st0"
   width="2.5"
   height="14.7"
   id="rect1"
   style="fill:#dfe2de;fill-opacity:1" />
			<path
   class="st0"
   d="M4.8,1.6H4.3v3.8H1.8v1.9h5.8c0,0-3.2,0.5-3.2,2.4s0,10.4,0,10.4h2.5V9c0,0,0.3-1.7,1.8-1.7     c0.4,0,0.6,0,0.6,0v-2H6.7V3.5h2.5V1.6H6.7H4.8z"
   id="path1"
   style="fill:#dfe2de;fill-opacity:1" />
			<rect
   x="11.1"
   y="1.6"
   class="st0"
   width="2.5"
   height="1.9"
   id="rect2"
   style="fill:#dfe2de;fill-opacity:1" />
			<polygon
   class="st0"
   points="17,5.4 17,20.1 19.4,20.1 19.4,10.1 19.4,5.4    "
   id="polygon2"
   style="fill:#dfe2de;fill-opacity:1" />
			<polygon
   class="st0"
   points="46.9,5.4 46.9,20.1 49.4,20.1 49.4,10.4 49.4,5.4    "
   id="polygon3"
   style="fill:#dfe2de;fill-opacity:1" />
			<path
   class="st0"
   d="M23.8,5.2c-4.1,0-4.4,5-4.4,5s0.3-3,3.5-3s3.5,2.6,3.5,2.6v10.4h2.5V9.7C28.9,8.8,28,5.2,23.8,5.2z"
   id="path3"
   style="fill:#dfe2de;fill-opacity:1" />
			<path
   class="st0"
   d="M62.2,5.2c-3.7,0-6.7,3.4-6.7,7.6s3,7.6,6.7,7.6c3.7,0,6.7-3.4,6.7-7.6S65.9,5.2,62.2,5.2z M62.2,18.5     c-2.4,0-4.4-2.6-4.4-5.8s2-5.8,4.4-5.8s4.4,2.6,4.4,5.8C66.6,15.9,64.6,18.5,62.2,18.5z"
   id="path4"
   style="fill:#dfe2de;fill-opacity:1" />
			<path
   class="st0"
   d="M38.2,7c1.9,0,3.5,1.6,4.1,3.9h2.3c-0.7-3.3-3.4-5.7-6.5-5.7c-3.7,0-6.7,3.4-6.7,7.6s3,7.6,6.7,7.6     c3.1,0,5.7-2.4,6.5-5.6h-2.4c-0.6,2.2-2.2,3.7-4.1,3.7c-2.4,0-4.4-2.6-4.4-5.8C33.8,9.6,35.8,7,38.2,7z"
   id="path5"
   style="fill:#dfe2de;fill-opacity:1" />
			<path
   class="st0"
   d="M49.4,10.2c0.1-0.6,0.6-2.9,3.5-2.9c0.9,0,1.7,0.3,1.7,0.3V5.4c0,0-0.8-0.4-1.9-0.4     C51.7,5,49.9,5.9,49.4,10.2z"
   id="path6"
   style="fill:#dfe2de;fill-opacity:1" />
			<path
   class="st0"
   d="M49.4,10.2c0,0.1,0,0.2,0,0.2C49.4,10.3,49.4,10.2,49.4,10.2z"
   id="path7"
   style="fill:#dfe2de;fill-opacity:1" />
			<path
   class="st0"
   d="M91.8,11.7c-3.9-0.9-4.2-1.6-4.2-2.6S88.8,7,91,7s3,1.5,3,2.5h2.4c0,0,0.2-4.3-5.4-4.3s-5.8,4.3-5.8,4.3     s-0.3,2.1,1.9,3.1c2.2,1.1,7.2,1.6,7.2,3.5s-2,2.3-3.3,2.3s-4.1-0.6-4.1-2.8c0-1.4,1.1-1.8,1.1-1.8s-3.1,0.1-3.1,2.3     c0,2.2,1.7,4.2,6.2,4.2s5.6-2.1,5.6-4.4S95.7,12.6,91.8,11.7z"
   id="path8"
   style="fill:#dfe2de;fill-opacity:1" />
			<path
   class="st0"
   d="M77.9,11.7c-3.9-0.9-4.3-1.6-4.3-2.6S74.9,7,77.1,7s3,1.5,3,2.5h2.4c0,0,0.2-4.3-5.4-4.3s-5.7,4.3-5.7,4.3     s-0.3,2.1,1.9,3.1c2.2,1.1,7.2,1.6,7.2,3.5s-2,2.3-3.3,2.3S73,17.8,73,15.6c0-1.4,1.2-2.1,1.2-2.1s-3.2,0.4-3.2,2.6     c0,2.2,1.7,4.2,6.2,4.2s5.6-2.1,5.6-4.4S81.8,12.6,77.9,11.7z"
   id="path9"
   style="fill:#dfe2de;fill-opacity:1" />
		</g>
	</g>
</g>
</svg>
