<?xml version="1.0" encoding="UTF-8" standalone="no"?>
<svg
   id="Layer_1"
   version="1.1"
   viewBox="0 0 300 116.79"
   sodipodi:docname="finreal.svg"
   inkscape:version="1.4.2 (ebf0e940d0, 2025-05-08)"
   xmlns:inkscape="http://www.inkscape.org/namespaces/inkscape"
   xmlns:sodipodi="http://sodipodi.sourceforge.net/DTD/sodipodi-0.dtd"
   xmlns="http://www.w3.org/2000/svg"
   xmlns:svg="http://www.w3.org/2000/svg">
  <sodipodi:namedview
     id="namedview14"
     pagecolor="#505050"
     bordercolor="#eeeeee"
     borderopacity="1"
     inkscape:showpageshadow="0"
     inkscape:pageopacity="0"
     inkscape:pagecheckerboard="0"
     inkscape:deskcolor="#505050"
     inkscape:zoom="3.7966667"
     inkscape:cx="150"
     inkscape:cy="58.472344"
     inkscape:window-width="1920"
     inkscape:window-height="1009"
     inkscape:window-x="0"
     inkscape:window-y="0"
     inkscape:window-maximized="1"
     inkscape:current-layer="Layer_1" />
  <!-- Generator: Adobe Illustrator 29.0.1, SVG Export Plug-In . SVG Version: 2.1.0 Build 192)  -->
  <defs
     id="defs1">
    <style
       id="style1">
      .st0 {
        fill: #961b1e;
      }
    </style>
  </defs>
  <polygon
     class="st0"
     points="51.35 44.82 6.86 44.82 6.86 66.3 51.35 66.3 51.35 110.8 72.84 110.8 72.84 66.3 72.84 44.82 51.35 44.82"
     id="polygon1" />
  <rect
     class="st0"
     x="29.11"
     y="-15.05"
     width="21.48"
     height="65.98"
     transform="translate(21.91 57.79) rotate(-90)"
     id="rect1" />
  <g
     id="g14"
     style="fill:#ffffff;fill-opacity:1">
    <path
       d="M98.99,55.56v-30.9h20.38v4.43h-14.72v8.76h13.72v4.43h-13.72v13.28h-5.65Z"
       id="path1"
       style="fill:#ffffff;fill-opacity:1" />
    <path
       d="M123.31,29.27v-5.35h6.09v5.35h-6.09ZM123.62,55.56v-22.13h5.48v22.13h-5.48Z"
       id="path2"
       style="fill:#ffffff;fill-opacity:1" />
    <path
       d="M153.68,35.19c-1.31-1.46-3.27-2.19-5.87-2.19-1.81,0-3.4.42-4.78,1.25-1.11.68-2,1.6-2.67,2.75l-.36-3.56h-5.3c.12.91.2,1.83.26,2.76.06.94.09,1.86.09,2.76v16.61h5.48v-12.49c0-1.75.5-3.16,1.49-4.21.99-1.05,2.34-1.58,4.03-1.58,1.37,0,2.4.39,3.09,1.16.69.77,1.03,2.05,1.03,3.83v13.28h5.48v-13.54c0-3.1-.66-5.38-1.97-6.84Z"
       id="path3"
       style="fill:#ffffff;fill-opacity:1" />
    <path
       d="M183.52,45.88c-.61-1.31-1.4-2.29-2.37-2.94-.44-.29-.9-.51-1.4-.67.52-.15,1.02-.32,1.48-.54,1.55-.72,2.74-1.75,3.57-3.09.83-1.34,1.25-2.96,1.25-4.86,0-2.86-.93-5.1-2.78-6.7-1.86-1.61-4.48-2.41-7.87-2.41h-13.5v30.9h5.65v-12.53h4.82c1.17,0,2.17.16,3,.48.83.32,1.45.99,1.86,2.02l4.56,10.04h6.22l-4.51-9.68ZM174.49,38.87h-6.92v-9.77h6.92c1.99,0,3.5.41,4.54,1.23,1.04.82,1.56,2.03,1.56,3.64s-.52,2.83-1.56,3.66c-1.04.83-2.55,1.25-4.54,1.25Z"
       id="path4"
       style="fill:#ffffff;fill-opacity:1" />
    <path
       d="M211.04,43.91c0-2.19-.37-4.1-1.12-5.74-.75-1.64-1.83-2.91-3.27-3.81-1.43-.91-3.21-1.36-5.35-1.36s-4.05.48-5.67,1.45c-1.62.96-2.89,2.31-3.79,4.03-.91,1.72-1.36,3.74-1.36,6.05,0,3.56,1.05,6.37,3.16,8.41,2.1,2.05,5.01,3.07,8.72,3.07,1.64,0,3.18-.23,4.64-.7,1.46-.47,2.72-1.12,3.77-1.97l-1.62-3.68c-.99.76-2.04,1.31-3.13,1.64s-2.27.5-3.53.5c-2.16,0-3.83-.59-5.02-1.77-1.06-1.06-1.64-2.62-1.75-4.67h15.32v-1.45ZM201.36,36.76c1.64,0,2.88.54,3.75,1.62.77.97,1.18,2.34,1.26,4.08h-10.57c.18-1.54.64-2.8,1.38-3.77.98-1.29,2.37-1.93,4.19-1.93Z"
       id="path5"
       style="fill:#ffffff;fill-opacity:1" />
    <path
       d="M231.99,33.43l-.38,3.69c-.53-1.1-1.34-2.02-2.44-2.74-1.42-.92-3.06-1.38-4.93-1.38s-3.62.46-5.08,1.38c-1.46.92-2.6,2.23-3.42,3.94s-1.23,3.76-1.23,6.16.41,4.46,1.23,6.18c.82,1.72,1.96,3.05,3.42,3.97,1.46.92,3.15,1.38,5.08,1.38,1.81,0,3.43-.45,4.86-1.36,1.03-.65,1.8-1.47,2.33-2.44l.03,3.36h5.43v-16.61c0-.91.04-1.83.11-2.76.07-.93.15-1.85.24-2.76h-5.26ZM229.93,49.98c-1.05,1.21-2.44,1.82-4.16,1.82s-3.15-.61-4.19-1.82c-1.04-1.21-1.56-3.05-1.56-5.5s.53-4.28,1.58-5.48c1.05-1.2,2.44-1.8,4.16-1.8s3.11.6,4.16,1.8c1.05,1.2,1.58,3.02,1.58,5.48s-.53,4.29-1.58,5.5Z"
       id="path6"
       style="fill:#ffffff;fill-opacity:1" />
    <path
       d="M242.86,55.56V23.31h5.48v32.25h-5.48Z"
       id="path7"
       style="fill:#ffffff;fill-opacity:1" />
    <path
       d="M109.42,97.04c-2.48,0-4.67-.32-6.57-.96-1.9-.64-3.59-1.58-5.08-2.8l1.14-2.24c1.05.82,2.08,1.49,3.09,2.02,1.01.53,2.11.91,3.31,1.16,1.2.25,2.56.37,4.08.37,2.72,0,4.76-.53,6.14-1.6,1.37-1.07,2.06-2.48,2.06-4.23,0-1.52-.48-2.68-1.42-3.48-.95-.8-2.61-1.44-4.97-1.91l-4.47-.92c-2.83-.58-4.94-1.52-6.33-2.8-1.39-1.29-2.08-3.04-2.08-5.26,0-1.81.47-3.39,1.4-4.73s2.24-2.38,3.9-3.11,3.59-1.1,5.78-1.1,4.19.33,5.98.99c1.8.66,3.34,1.63,4.62,2.92l-1.1,2.19c-1.37-1.29-2.82-2.21-4.34-2.78-1.52-.57-3.24-.85-5.17-.85-2.54,0-4.56.58-6.05,1.73-1.49,1.15-2.23,2.71-2.23,4.67,0,1.58.47,2.8,1.42,3.68.95.88,2.49,1.53,4.62,1.97l4.51.92c3.01.61,5.21,1.51,6.62,2.7,1.4,1.18,2.1,2.87,2.1,5.06,0,1.67-.45,3.13-1.34,4.4-.89,1.27-2.15,2.26-3.79,2.96-1.64.7-3.58,1.05-5.83,1.05Z"
       id="path8"
       style="fill:#ffffff;fill-opacity:1" />
    <path
       d="M126.07,96.68v-32.25h2.67v32.25h-2.67Z"
       id="path9"
       style="fill:#ffffff;fill-opacity:1" />
    <path
       d="M144.74,97.04c-2.07,0-3.86-.45-5.37-1.36-1.5-.91-2.67-2.21-3.48-3.9-.82-1.69-1.23-3.72-1.23-6.09s.41-4.35,1.23-6.05c.82-1.69,1.98-3,3.48-3.92,1.5-.92,3.29-1.38,5.37-1.38s3.82.46,5.32,1.38c1.5.92,2.67,2.23,3.51,3.92.83,1.69,1.25,3.71,1.25,6.05s-.42,4.4-1.25,6.09c-.83,1.69-2,3-3.51,3.9-1.51.91-3.28,1.36-5.32,1.36ZM144.74,94.76c2.22,0,4-.77,5.35-2.32,1.34-1.55,2.02-3.8,2.02-6.75s-.67-5.2-2.02-6.75c-1.34-1.55-3.13-2.32-5.35-2.32s-4.04.77-5.37,2.32c-1.33,1.55-1.99,3.8-1.99,6.75s.66,5.2,1.99,6.75c1.33,1.55,3.12,2.32,5.37,2.32Z"
       id="path10"
       style="fill:#ffffff;fill-opacity:1" />
    <polygon
       points="176.16 74.73 168.32 93.64 160.56 74.73 157.58 74.73 166.91 96.68 169.67 96.68 179.01 74.73 176.16 74.73"
       id="polygon10"
       style="fill:#ffffff;fill-opacity:1" />
    <path
       d="M201.23,84.59c0-2.1-.37-3.92-1.1-5.46-.73-1.53-1.77-2.72-3.11-3.55-1.34-.83-3-1.25-4.95-1.25s-3.84.48-5.39,1.42-2.75,2.27-3.62,3.97-1.29,3.71-1.29,6.05c0,3.54.97,6.3,2.91,8.28,1.94,1.99,4.58,2.98,7.91,2.98,1.61,0,3.15-.26,4.64-.79,1.49-.53,2.7-1.27,3.64-2.23l-1.1-1.97c-1.08.99-2.21,1.7-3.37,2.1-1.17.41-2.43.61-3.77.61-2.6,0-4.62-.76-6.07-2.28-1.45-1.52-2.17-3.74-2.17-6.66h16.83v-1.23ZM186.41,78.96c1.34-1.65,3.21-2.48,5.61-2.48,2.25,0,3.94.71,5.08,2.12,1.05,1.3,1.59,3.08,1.67,5.28h-14.29c.22-1.98.86-3.62,1.92-4.93Z"
       id="path11"
       style="fill:#ffffff;fill-opacity:1" />
    <path
       d="M223.11,76.39c-1.33-1.37-3.29-2.06-5.89-2.06-1.9,0-3.56.47-5,1.4-1.14.75-2.02,1.77-2.66,3.03l-.32-4.04h-2.63c.12.85.2,1.68.26,2.5.06.82.09,1.62.09,2.41v17.05h2.67v-12.58c0-2.28.65-4.09,1.95-5.43,1.3-1.34,3.06-2.02,5.28-2.02,1.9,0,3.3.5,4.21,1.51.91,1.01,1.36,2.64,1.36,4.89v13.63h2.67v-13.85c0-2.92-.66-5.07-1.99-6.44Z"
       id="path12"
       style="fill:#ffffff;fill-opacity:1" />
    <path
       d="M239.39,97.04c-1.69,0-3.28-.25-4.75-.75s-2.69-1.18-3.66-2.06l1.05-1.97c1.08.88,2.25,1.53,3.51,1.95s2.57.63,3.94.63c1.87,0,3.29-.35,4.25-1.05.96-.7,1.45-1.65,1.45-2.85,0-.93-.31-1.69-.92-2.28-.61-.58-1.64-1.02-3.07-1.31l-3.94-.83c-1.87-.44-3.26-1.14-4.18-2.1-.92-.96-1.38-2.18-1.38-3.64,0-1.26.33-2.37.99-3.33s1.6-1.72,2.83-2.28c1.23-.55,2.67-.83,4.34-.83,1.58,0,3.03.26,4.36.77,1.33.51,2.42,1.24,3.26,2.17l-1.14,1.93c-.88-.88-1.86-1.53-2.96-1.97s-2.26-.66-3.48-.66c-1.81,0-3.18.37-4.12,1.12-.94.75-1.4,1.73-1.4,2.96,0,.94.29,1.7.88,2.3.58.6,1.5,1.04,2.76,1.34l3.94.88c1.99.44,3.46,1.11,4.43,2.02.96.91,1.45,2.1,1.45,3.59,0,1.29-.35,2.4-1.05,3.35s-1.68,1.67-2.94,2.17-2.73.75-4.43.75Z"
       id="path13"
       style="fill:#ffffff;fill-opacity:1" />
    <polygon
       points="259.5 85.28 270.99 74.73 267.53 74.73 256.7 84.68 256.62 84.68 256.62 64.43 253.94 64.43 253.94 96.68 256.62 96.68 256.62 86.12 256.7 86.12 268.67 96.68 272.3 96.68 259.5 85.28"
       id="polygon13"
       style="fill:#ffffff;fill-opacity:1" />
    <path
       d="M283.83,97.04c-2.08,0-3.86-.45-5.37-1.36-1.51-.91-2.67-2.21-3.48-3.9-.82-1.69-1.23-3.72-1.23-6.09s.41-4.35,1.23-6.05c.82-1.69,1.98-3,3.48-3.92,1.5-.92,3.29-1.38,5.37-1.38s3.82.46,5.32,1.38c1.5.92,2.67,2.23,3.51,3.92.83,1.69,1.25,3.71,1.25,6.05s-.42,4.4-1.25,6.09c-.83,1.69-2,3-3.51,3.9-1.5.91-3.28,1.36-5.32,1.36ZM283.83,94.76c2.22,0,4-.77,5.35-2.32,1.34-1.55,2.02-3.8,2.02-6.75s-.67-5.2-2.02-6.75c-1.34-1.55-3.13-2.32-5.35-2.32s-4.04.77-5.37,2.32c-1.33,1.55-1.99,3.8-1.99,6.75s.66,5.2,1.99,6.75c1.33,1.55,3.12,2.32,5.37,2.32Z"
       id="path14"
       style="fill:#ffffff;fill-opacity:1" />
  </g>
</svg>
