<svg xmlns="http://www.w3.org/2000/svg" xmlns:xlink="http://www.w3.org/1999/xlink" version="1.1" width="734.2634pt" height="140.12113pt" viewBox="0 0 734.2634 140.12113">
<g>
<path d="M560.016 32.637V63.258C560.074 63.254 560.133 63.238 560.172 63.215 560.352 63.102 560.551 62.766 560.645 62.59 561.578 60.828 561.715 57.719 561.715 55.785V37.227C561.715 36.348 561.602 33.82 560.91 33.117 560.699 32.898 560.379 32.746 560.016 32.637ZM491.488 71.148V102.379C491.488 102.934 491.559 104.551 491.891 105.203 491.973 105.203 492.125 105.203 492.223 105.18 492.609 104.66 492.691 102.922 492.691 102.379V72.133C492.691 72.055 492.691 71.934 492.68 71.82 492.25 71.625 491.852 71.398 491.488 71.148ZM505.051 114.234C501.125 118.008 496.223 120.168 490.367 120.168 479.035 120.168 471.328 113.121 466.184 104.082 460.039 93.277 457.715 81.191 457.715 68.996 457.715 56.098 460.004 42.66 467.367 31.598 473.051 23.066 481.074 16.238 492.195 16.238 496.301 16.238 500.184 17.148 503.707 19.055 504.961 17.297 506.934 16.238 509.332 16.238H510.211L512.473 16.379 512.664 16.41C515.902 16.898 517.934 19.184 518.562 22.168L522.441 40.59C522.742 42.008 523.125 43.762 523.125 45.203 523.125 47.18 522.195 48.953 520.457 50.051 519.051 50.941 517.383 51.227 515.719 51.227 513.273 51.227 510.527 50.926 508.695 49.215 507.879 48.445 507.191 47.34 506.621 46.395 505.77 44.973 504.984 43.5 504.223 42.035 503.23 40.121 502.176 38.207 500.996 36.395 500.293 35.316 499.465 34.129 498.543 33.211 497.793 32.465 496.785 31.68 495.637 31.68 494.406 31.68 493.59 31.965 492.93 32.969 491.691 34.836 491.488 38.156 491.488 40.289V57.059C492.738 56.457 494.188 56.281 495.617 56.281H521.363C523.387 56.281 525.453 56.699 526.906 58.148 528.426 59.664 528.707 61.801 528.707 63.801 528.707 65.375 528.625 67.246 527.91 68.688 527.152 70.211 525.801 71.211 524.227 71.855V110.852C524.227 112.715 524.191 115.336 523.332 117.031L523.254 117.172C522 119.414 519.516 120.168 517.008 120.168 515.672 120.168 514.211 120.113 512.941 119.703 511.484 119.23 510.176 118.191 509.086 117.188 507.914 116.102 506.543 115.023 505.051 114.234ZM561.734 105.184C561.723 104.848 561.715 104.516 561.715 104.18V80.84C561.715 80.234 561.641 79.031 561.141 78.566 560.895 78.336 560.465 78.195 560.012 78.113V102.715C560.012 102.973 560.012 103.312 560.02 103.637 560.695 104.082 561.266 104.602 561.73 105.184ZM630.008 32.57C629.348 32.918 628.613 33.156 627.832 33.281 627.773 33.289 627.68 33.309 627.598 33.332 627.555 33.516 627.543 33.797 627.543 33.93V103.273C627.668 103.352 627.82 103.426 627.914 103.469 628.762 103.859 629.617 104.305 630.355 104.871 630.75 104.668 631.164 104.496 631.598 104.355L631.648 104.336 631.699 104.32C631.723 104.312 631.777 104.293 631.801 104.281 632.148 103.973 632.23 102.441 632.23 102.043V33.828C631.441 33.48 630.676 33.07 630.004 32.566ZM682.812 101.676 682.422 104.242C682.738 103.863 682.812 102.43 682.812 102.043ZM682.812 91.93V33.828C681.055 33.062 679.441 31.977 678.629 30.238 677.961 28.805 677.832 27.09 677.832 25.539 677.832 23.914 677.879 21.91 678.727 20.453 679.867 18.465 682.078 17.781 684.328 17.781H712.395C714.535 17.781 716.598 18.422 717.91 20.109 719.254 21.809 719.324 24.367 719.324 26.41 719.324 27.941 719.195 29.594 718.391 30.957L718.371 30.988 718.348 31.023C717.402 32.547 715.766 33.402 714.059 33.953 714.008 33.973 713.926 34 713.848 34.031V104.109C714.199 103.43 714.516 102.527 714.746 101.898 715.422 100.012 716 98.078 716.555 96.156 717.109 93.973 718.016 91.574 720.117 90.324 721.781 89.309 723.883 89.094 725.82 89.094 727.656 89.094 729.848 89.176 731.461 90.098 733.352 91.176 734.262 93.055 734.262 95.113 734.262 96.164 734.082 97.293 733.902 98.328L731.785 112.195 731.781 112.234C731.5 113.836 731.059 115.594 729.984 116.891 728.609 118.555 726.484 119.102 724.348 119.102H684.328C682.379 119.102 680.57 118.43 679.293 117.023 677.914 118.586 675.844 119.102 673.77 119.102H633.75C632.539 119.102 631.383 118.844 630.375 118.312 629.168 119.008 627.723 119.102 626.344 119.102H596.676C595.293 119.102 594.031 118.742 593.031 118.078 591.809 118.844 590.289 119.102 588.77 119.102H572.566C568.77 119.102 565.953 116.977 564.133 113.926 563.824 113.41 563.551 112.883 563.309 112.348 563.188 113.934 562.836 115.559 561.867 116.754 560.504 118.465 558.41 119.102 556.219 119.102H530.617C528.559 119.102 526.699 118.242 525.531 116.617 524.566 115.281 524.25 113.688 524.25 112.094 524.25 110.703 524.223 108.883 524.527 107.527 524.965 105.586 526.387 104.156 528.305 103.465 528.469 103.398 528.711 103.285 528.801 103.148 528.953 102.926 528.98 102.453 528.98 102.203V34.402C528.98 34.227 528.965 33.855 528.91 33.602 527.457 33.148 526.008 32.488 525.074 31.289 523.965 29.867 523.875 27.938 523.875 26.23 523.875 24.445 524.117 22.562 525.027 20.973 526.176 18.965 528.211 17.781 530.617 17.781H564.27C572.324 17.781 579.273 20.777 585.07 26.055 591.578 31.977 594.246 39.707 594.246 48.184 594.246 58.305 589.949 65.703 582.223 70.438 589.125 74.68 592.629 81.68 592.629 90.93V104.324C592.855 104.492 593.07 104.672 593.273 104.859 594.109 104.242 595.109 103.797 596.16 103.488L596.227 103.465 596.297 103.449C596.352 103.434 596.43 103.41 596.512 103.387V35.309C596.512 34.914 596.488 34.043 596.359 33.523 596.188 33.422 595.945 33.32 595.809 33.266 594.375 32.695 592.949 31.934 592.07 30.672 591.219 29.465 591.031 28.023 591.031 26.602V23.543C591.031 20.082 593.645 17.777 597.234 17.777H626.344C627.688 17.777 629.043 17.934 630.219 18.516 631.266 17.988 632.5 17.777 633.75 17.777H661.82C663.957 17.777 666.02 18.418 667.332 20.109 668.676 21.809 668.75 24.363 668.75 26.406 668.75 27.938 668.621 29.594 667.812 30.953L667.793 30.988 667.77 31.02C666.824 32.547 665.184 33.398 663.477 33.953 663.426 33.969 663.344 33.996 663.27 34.027V104.109C663.621 103.43 663.938 102.527 664.164 101.895 664.844 100.012 665.422 98.074 665.973 96.152 666.531 93.969 667.438 91.57 669.535 90.32 671.203 89.305 673.301 89.09 675.238 89.09 677.078 89.09 679.27 89.172 680.883 90.094 681.711 90.566 682.355 91.199 682.812 91.93" fill="#231f20" fill-rule="evenodd"/>
<path d="M595.223 26.605V23.547C595.223 22.359 595.883 21.77 597.234 21.77H626.34C627.438 21.77 628.145 21.906 628.477 22.184 628.789 22.438 628.953 23.25 628.953 24.609 628.953 26.645 628.852 27.93 628.621 28.422 628.395 28.914 627.895 29.23 627.129 29.352 624.617 29.766 623.352 31.305 623.352 33.93V103.586C623.352 105.047 624.266 106.211 626.09 107.062 627.273 107.594 627.98 108.066 628.207 108.48 628.457 108.898 628.582 109.609 628.582 110.633V112.844C628.582 114.047 628.457 114.738 628.207 114.898 627.98 115.035 627.336 115.117 626.34 115.117H596.672C595.531 115.117 594.973 114.684 594.973 113.832 594.973 111.066 595.074 109.371 595.281 108.738 595.469 108.125 596.195 107.652 597.398 107.297 599.598 106.727 600.699 105.617 600.699 104V35.312C600.699 33.695 600.492 32.469 600.098 31.641 599.68 30.812 598.789 30.121 597.418 29.586 596.402 29.172 595.781 28.797 595.551 28.461 595.324 28.145 595.223 27.512 595.223 26.605ZM503.875 109.469C500.223 113.949 495.723 116.184 490.367 116.184 482.008 116.184 475.18 111.523 469.871 102.184 464.559 92.844 461.902 81.789 461.902 68.996 461.902 54.484 464.91 42.734 470.906 33.734 476.902 24.73 484 20.227 492.195 20.227 496.113 20.227 499.602 21.195 502.648 23.109 503.625 23.703 504.371 23.98 504.891 23.98 505.637 23.98 506.258 23.328 506.777 22.027 507.277 20.82 508.125 20.227 509.332 20.227H510.078L512.008 20.348C513.312 20.543 514.121 21.414 514.453 22.953L518.336 41.375C518.75 43.27 518.938 44.555 518.938 45.203 518.938 46.566 517.879 47.238 515.719 47.238 513.605 47.238 512.254 46.941 511.633 46.367 511.031 45.797 509.809 43.762 507.98 40.27 505.555 35.57 503.418 32.293 501.57 30.457 499.727 28.621 497.754 27.691 495.637 27.691 490.078 27.691 487.297 31.898 487.297 40.289V102.379C487.297 106.922 488.832 109.191 491.883 109.191 495.223 109.191 496.883 106.922 496.883 102.379V72.133C496.883 70.18 496.156 68.895 494.723 68.324 493.168 67.711 492.402 66.445 492.402 64.555 492.402 62.5 492.609 61.277 493.004 60.879 493.418 60.465 494.289 60.27 495.617 60.27H521.363C522.609 60.27 523.457 60.484 523.875 60.898 524.309 61.336 524.516 62.301 524.516 63.801 524.516 65.383 524.391 66.449 524.121 66.98 523.852 67.535 523.23 67.969 522.215 68.324 520.762 68.816 520.035 69.883 520.035 71.504V110.852C520.035 113.219 519.871 114.684 519.559 115.293 519.227 115.887 518.375 116.184 517.008 116.184 515.742 116.184 514.848 116.102 514.289 115.926 513.75 115.746 512.98 115.215 512.008 114.328 509.309 111.82 506.594 110.199 503.875 109.469ZM555.824 28.402V67.258H559.828C563.875 67.258 565.906 63.426 565.906 55.785V37.227C565.906 33.988 565.262 31.719 563.977 30.395 562.668 29.074 560.656 28.402 557.918 28.402ZM555.824 74.012V102.715C555.824 104.078 555.906 104.988 556.094 105.441 556.258 105.895 556.758 106.391 557.586 106.883 558.645 107.555 559.184 108.641 559.184 110.199 559.184 112.43 558.977 113.812 558.543 114.324 558.125 114.859 557.359 115.117 556.219 115.117H530.617C529.164 115.117 528.438 114.109 528.438 112.094 528.438 110.18 528.5 108.918 528.625 108.363 528.75 107.809 529.145 107.414 529.828 107.18 532.047 106.328 533.168 104.672 533.168 102.203V34.406C533.168 31.898 532.191 30.355 530.242 29.824 529.289 29.527 528.664 29.211 528.438 28.914 528.188 28.602 528.062 27.711 528.062 26.23 528.062 23.25 528.914 21.77 530.617 21.77H564.266C570.945 21.77 576.922 24.156 582.172 28.934 587.418 33.715 590.055 40.129 590.055 48.184 590.055 59.637 583.914 67.121 571.609 70.633 582.836 72.984 588.438 79.754 588.438 90.93V104.691C588.438 105.855 588.891 106.707 589.805 107.297 590.883 107.988 591.422 109.055 591.422 110.477 591.422 112.727 591.277 114.047 591.008 114.484 590.719 114.898 589.973 115.117 588.77 115.117H572.566C570.613 115.117 569.039 114.07 567.773 111.957 566.527 109.863 565.906 107.258 565.906 104.18V80.84C565.906 76.281 563.457 74.012 558.582 74.012ZM709.656 108.602H713.184C715.012 108.602 716.34 107.93 717.211 106.566 718.082 105.203 719.203 102.066 720.613 97.148 721.09 95.254 721.672 94.09 722.355 93.695 723.02 93.281 724.18 93.082 725.82 93.082 727.625 93.082 728.785 93.219 729.305 93.516 729.824 93.812 730.07 94.344 730.07 95.113 730.07 95.648 729.969 96.516 729.762 97.723L727.645 111.582C727.395 113.004 727.086 113.949 726.691 114.426 726.316 114.879 725.531 115.117 724.348 115.117H684.328C682.625 115.117 681.773 114.109 681.773 112.113 681.773 110.574 681.879 109.586 682.105 109.133 682.336 108.699 682.812 108.363 683.539 108.125 685.84 107.434 687.004 105.402 687.004 102.043V33.359C687.004 31.938 686.254 30.91 684.781 30.297 683.516 29.785 682.75 29.23 682.461 28.621 682.168 27.988 682.023 26.961 682.023 25.539 682.023 23.84 682.148 22.773 682.398 22.379 682.625 21.965 683.289 21.77 684.328 21.77H712.395C713.453 21.77 714.18 22.004 714.555 22.5 714.949 22.973 715.137 24.277 715.137 26.41 715.137 27.691 715.012 28.539 714.742 28.996 714.473 29.43 713.785 29.824 712.707 30.18 710.676 30.832 709.656 32.113 709.656 33.988ZM659.078 108.602H662.605C664.43 108.602 665.758 107.93 666.629 106.566 667.5 105.203 668.621 102.066 670.031 97.148 670.508 95.254 671.09 94.09 671.773 93.695 672.438 93.281 673.602 93.082 675.238 93.082 677.043 93.082 678.207 93.219 678.727 93.516 679.242 93.812 679.492 94.344 679.492 95.113 679.492 95.648 679.387 96.516 679.18 97.723L677.066 111.582C676.816 113.004 676.504 113.949 676.109 114.426 675.738 114.879 674.949 115.117 673.766 115.117H633.746C632.047 115.117 631.195 114.109 631.195 112.113 631.195 110.574 631.297 109.586 631.527 109.133 631.754 108.699 632.234 108.363 632.957 108.125 635.262 107.434 636.422 105.402 636.422 102.043V33.359C636.422 31.938 635.676 30.91 634.203 30.297 632.938 29.785 632.168 29.23 631.879 28.621 631.59 27.988 631.441 26.961 631.441 25.539 631.441 23.84 631.566 22.773 631.816 22.379 632.047 21.965 632.707 21.77 633.746 21.77H661.816C662.875 21.77 663.602 22.004 663.973 22.5 664.367 22.973 664.555 24.277 664.555 26.41 664.555 27.691 664.43 28.539 664.16 28.996 663.891 29.43 663.207 29.824 662.129 30.18 660.094 30.832 659.078 32.113 659.078 33.988ZM659.078 108.602" fill="#ffffff" fill-rule="evenodd"/>
<path d="M103.703 104.918C103.727 104.891 103.746 104.867 103.758 104.848 104.246 104.113 104.457 103.34 104.457 102.473V32.785C104.457 32.164 104.363 30.172 103.93 29.543 103.887 29.539 103.836 29.539 103.801 29.535 103.73 29.59 103.648 29.691 103.605 29.746L103.582 29.773 103.562 29.805C103.113 30.344 102.996 31.062 102.996 31.734V101.836C102.996 102.613 103.082 104.137 103.605 104.793 103.629 104.828 103.668 104.871 103.711 104.918ZM36.34 31.449V62.199C36.402 62.191 36.461 62.176 36.5 62.152 36.68 62.039 36.879 61.699 36.973 61.527 37.914 59.758 38.051 56.633 38.051 54.695V36.059C38.051 35.172 37.938 32.637 37.246 31.93 37.031 31.711 36.707 31.559 36.34 31.449ZM38.07 104.297C38.062 103.961 38.051 103.625 38.051 103.285V79.852C38.051 79.246 37.977 78.035 37.473 77.566 37.223 77.336 36.793 77.195 36.34 77.113V101.82C36.34 102.078 36.336 102.418 36.348 102.742 37.031 103.191 37.602 103.711 38.07 104.297ZM70.684 49.375C72.023 42.695 74.289 36.211 77.895 30.383 83.691 21.004 92.184 14.984 103.867 14.984 110.902 14.984 117.094 17.25 122.277 21.766 127.789 26.566 131.527 33 134.121 39.59 137.613 48.457 138.539 58.715 138.539 68.117 138.539 80.398 136.309 92.812 129.906 103.625 124.109 113.402 115.387 119.344 103.391 119.344 91.762 119.344 83.34 113.359 77.664 103.973 71.051 93.035 69.031 79.93 69.031 67.48 69.031 63.324 69.25 59.078 69.789 54.863 68.109 61.125 64.293 65.965 58.672 69.406 65.609 73.664 69.137 80.695 69.137 89.98V103.43C71.148 104.934 72.137 107.145 72.137 109.609 72.137 111.449 72.141 114.059 71.137 115.672L71.074 115.766 71.012 115.855C69.703 117.719 67.473 118.273 65.254 118.273H48.961C45.145 118.273 42.312 116.141 40.48 113.074 40.172 112.559 39.898 112.031 39.652 111.488 39.527 113.082 39.18 114.715 38.203 115.914 36.832 117.633 34.723 118.273 32.523 118.273H6.781C4.707 118.273 2.844 117.406 1.664 115.777 .695 114.434 .375 112.836 .375 111.234 .375 109.84 .352 108.008 .66 106.648 1.098 104.699 2.523 103.266 4.453 102.57 4.617 102.504 4.863 102.391 4.957 102.254 5.105 102.027 5.133 101.555 5.133 101.305V33.223C5.133 33.047 5.121 32.672 5.059 32.418 3.598 31.965 2.145 31.301 1.207 30.098 .09 28.668 0 26.73 0 25.016 0 23.223 .242 21.332 1.156 19.738 2.309 17.723 4.359 16.531 6.781 16.531H40.617C48.715 16.531 55.703 19.539 61.531 24.84 68.078 30.789 70.762 38.547 70.762 47.062 70.762 47.848 70.738 48.621 70.688 49.375ZM172.039 30.891C171.645 31.227 171.199 31.523 170.703 31.781 170.691 31.789 170.68 31.793 170.66 31.801 170.637 32.094 170.637 32.41 170.637 32.629V97.695C170.637 98.227 170.711 98.859 171.113 99.266L171.137 99.293 171.16 99.316C171.445 99.617 171.73 99.676 172.152 99.676 172.449 99.676 172.621 99.477 172.805 99.27 173.211 98.797 173.469 98.309 173.469 97.691V32.625C173.469 32.469 173.469 32.27 173.461 32.07 173.336 31.973 173.203 31.879 173.102 31.805 172.711 31.52 172.352 31.211 172.023 30.891ZM250.164 18.199C251.496 16.828 253.434 16.531 255.344 16.531H294.48C296.102 16.531 297.727 16.824 299.07 17.742 300.703 18.859 301.43 20.641 301.785 22.453L304.91 37.441C305.066 38.195 305.242 39.02 305.242 39.785 305.242 41.766 304.168 43.492 302.348 44.457 301.047 45.148 299.559 45.355 298.086 45.355 295.824 45.355 293.156 45.176 291.25 43.898 289.328 42.629 288.266 40.328 287.531 38.289 287.027 36.895 286.488 35.5 285.867 34.148 285.637 33.641 285.379 33.098 285.09 32.586V55.195C285.234 54.441 285.387 53.688 285.559 52.945 285.758 52.09 286 51.148 286.41 50.363L286.453 50.289 286.496 50.211C287.551 48.406 289.441 47.34 291.617 47.34 292.957 47.34 294.316 47.348 295.648 47.441 296.891 47.527 298.16 47.68 299.238 48.316L299.281 48.336 299.324 48.359C301.578 49.75 301.867 52.336 301.867 54.652V74C301.867 75.918 301.477 77.887 299.949 79.266 298.219 80.824 295.523 80.918 293.273 80.918 291.102 80.918 288.914 80.469 287.402 78.879 286.059 77.484 285.477 75.191 285.094 73.309V103.34C285.137 103.262 285.168 103.188 285.199 103.121 285.461 102.566 285.699 101.996 285.926 101.43 286.688 99.523 287.355 97.566 288 95.621 288.668 93.594 289.609 91.195 291.277 89.723 293.105 88.109 295.594 87.66 298.008 87.66 299.793 87.66 301.609 87.945 303.133 88.883 304.992 90.027 305.996 91.887 305.996 93.984 305.996 94.883 305.852 95.816 305.688 96.699L303.418 109.859C303.238 110.887 303.055 111.922 302.824 112.941 302.637 113.75 302.414 114.605 302.016 115.348 300.809 117.625 298.273 118.27 295.797 118.27H254.969C252.734 118.27 250.57 117.539 249.395 115.613 248.391 113.992 248.379 111.547 248.379 109.727 248.379 106.711 250.172 104.344 253.035 103.121L253.086 103.102 253.141 103.082C253.312 103.012 253.66 102.863 253.898 102.715V32.207C253.824 32.176 253.75 32.148 253.691 32.121 253.355 31.984 253.02 31.836 252.691 31.676L253.07 36.004C253.164 37.062 253.207 38.125 253.207 39.188 253.207 40.66 253.027 42.184 252.359 43.527 251.145 46.066 248.352 46.781 245.656 46.781 243.562 46.781 241.07 46.676 239.293 45.508 238.555 45.031 237.996 44.41 237.562 43.703V101.758C237.562 101.875 237.574 102.203 237.637 102.316 237.699 102.379 237.891 102.469 237.969 102.5 239.504 103.125 240.852 104.082 241.66 105.5 242.477 106.938 242.562 108.797 242.562 110.402 242.562 112.512 242.457 115.035 240.785 116.621L240.703 116.707 240.609 116.785C239.137 118.027 237.176 118.27 235.285 118.27H208.312C206.281 118.27 204.273 117.754 202.961 116.172L202.93 116.133 202.895 116.094C201.66 114.527 201.594 112.25 201.594 110.359 201.594 107.121 202.801 103.922 206.219 102.676 206.262 102.664 206.305 102.648 206.352 102.629V43.922C206.094 44.316 205.797 44.688 205.449 45.016L205.43 45.039 205.406 45.062C203.66 46.664 201.152 47.02 198.828 47.02 196.73 47.02 194.414 46.809 192.746 45.473 191.871 44.785 191.293 43.918 190.941 42.969V95.809C190.941 102.23 189.078 108.254 184.262 112.895 179.375 117.605 172.883 119.34 166.055 119.34 158.781 119.34 151.609 117.645 146.391 112.562 141.168 107.477 139.457 100.59 139.457 93.668V32.621C139.375 32.574 139.285 32.535 139.227 32.512 137.797 31.898 136.43 31.09 135.637 29.75L135.613 29.707 135.594 29.66C134.914 28.445 134.832 26.996 134.832 25.648 134.832 23.863 134.852 21.363 135.66 19.723 136.805 17.352 139.355 16.527 141.922 16.527H168.375C169.734 16.527 171.062 16.805 172.145 17.477 173.238 16.812 174.52 16.527 175.844 16.527H189.051C190.922 16.527 192.508 17.133 193.633 18.18 195.352 16.75 197.797 16.527 200 16.527H244.789C246.738 16.527 248.77 16.797 250.191 18.195" fill="#231f20" fill-rule="evenodd"/>
<path d="M32.129 72.992V101.82C32.129 103.188 32.211 104.098 32.398 104.555 32.566 105.012 33.066 105.508 33.902 106 34.965 106.676 35.508 107.766 35.508 109.332 35.508 111.574 35.297 112.961 34.859 113.477 34.441 114.012 33.672 114.27 32.523 114.27H6.781C5.32 114.27 4.59 113.258 4.59 111.234 4.59 109.312 4.652 108.043 4.777 107.488 4.902 106.934 5.301 106.535 5.988 106.301 8.219 105.445 9.348 103.781 9.348 101.305V33.223C9.348 30.707 8.367 29.16 6.406 28.625 5.445 28.328 4.82 28.008 4.59 27.711 4.34 27.395 4.215 26.504 4.215 25.016 4.215 22.023 5.07 20.535 6.781 20.535H40.617C47.336 20.535 53.344 22.934 58.621 27.73 63.898 32.531 66.547 38.973 66.547 47.062 66.547 58.559 60.371 66.074 48.004 69.602 59.289 71.961 64.922 78.762 64.922 89.984V103.801C64.922 104.969 65.379 105.824 66.297 106.418 67.383 107.113 67.926 108.184 67.926 109.609 67.926 111.871 67.777 113.199 67.508 113.633 67.215 114.051 66.465 114.27 65.254 114.27H48.961C47 114.27 45.418 113.219 44.145 111.098 42.891 108.996 42.266 106.379 42.266 103.285V79.852C42.266 75.273 39.805 72.992 34.902 72.992ZM32.129 27.195V66.211H36.152C40.223 66.211 42.266 62.367 42.266 54.695V36.059C42.266 32.809 41.621 30.527 40.324 29.199 39.012 27.871 36.988 27.195 34.234 27.195ZM103.867 18.988C109.875 18.988 115.051 20.891 119.43 24.719 123.812 28.523 127.402 33.957 130.176 40.996 132.949 48.051 134.324 57.094 134.324 68.117 134.324 81.359 131.637 92.539 126.23 101.66 120.828 110.781 113.215 115.34 103.391 115.34 94.062 115.34 86.699 110.879 81.316 101.977 75.934 93.074 73.246 81.578 73.246 67.48 73.246 53.047 75.996 41.352 81.527 32.41 87.055 23.469 94.504 18.988 103.867 18.988ZM108.668 32.785C108.668 27.949 107.039 25.531 103.766 25.531 102.387 25.531 101.199 26.125 100.238 27.336 99.258 28.523 98.777 30.012 98.777 31.734V101.84C98.777 104.199 99.258 105.98 100.238 107.211 101.199 108.418 102.367 109.035 103.703 109.035 105.184 109.035 106.395 108.359 107.312 106.992 108.207 105.645 108.668 104.137 108.668 102.473ZM141.898 20.535H168.352C169.25 20.535 169.832 20.715 170.062 21.09 170.312 21.449 170.438 22.598 170.438 24.48 170.438 26.383 169.852 27.652 168.684 28.266 167.789 28.723 167.184 29.219 166.891 29.715 166.578 30.23 166.434 31.199 166.434 32.629V97.695C166.434 99.48 166.973 100.926 168.059 102.016 169.121 103.125 170.5 103.68 172.168 103.68 173.691 103.68 175.008 103.066 176.07 101.82 177.156 100.59 177.695 99.199 177.695 97.695V32.629C177.695 31.52 177.594 30.723 177.363 30.27 177.133 29.832 176.57 29.277 175.672 28.625 174.277 27.613 173.566 26.066 173.566 23.965 173.566 22.34 173.754 21.367 174.152 21.031 174.527 20.695 175.09 20.535 175.82 20.535H189.023C190.484 20.535 191.215 21.227 191.215 22.617V25.391C191.215 26.621 191.133 27.395 190.965 27.73 190.82 28.047 190.34 28.348 189.566 28.625 187.668 29.238 186.707 30.508 186.707 32.41V95.812C186.707 101.82 184.895 106.578 181.242 110.086 177.613 113.594 172.543 115.34 166.035 115.34 158.754 115.34 153.207 113.477 149.387 109.77 145.57 106.043 143.652 100.688 143.652 93.672V32.469C143.652 30.844 142.754 29.633 140.938 28.859 140.023 28.465 139.48 28.109 139.293 27.793 139.102 27.453 139.02 26.738 139.02 25.648 139.02 23.41 139.164 21.98 139.457 21.406 139.73 20.832 140.543 20.535 141.898 20.535ZM210.555 27.078H207.777C206.883 27.078 206.152 27.652 205.59 28.781 205.023 29.934 204.422 33.004 203.793 38.039 203.504 40.242 203.062 41.609 202.461 42.184 201.855 42.738 200.625 43.016 198.809 43.016 197.055 43.016 195.93 42.816 195.43 42.402 194.906 42.004 194.656 41.195 194.656 40.004 194.656 39.289 194.68 38.598 194.719 37.902L195.469 24.359C195.555 22.773 195.824 21.746 196.305 21.27 196.805 20.773 198.016 20.535 199.977 20.535H244.766C246.059 20.535 246.852 20.695 247.145 20.992 247.438 21.309 247.664 22.438 247.812 24.359L248.855 36.336C248.938 37.27 248.98 38.219 248.98 39.191 248.98 40.34 248.836 41.23 248.52 41.848 248.23 42.48 247.25 42.777 245.641 42.777 243.555 42.777 242.242 42.602 241.656 42.203 241.051 41.828 240.594 40.598 240.219 38.555 239.57 35.188 238.84 32.43 238.07 30.289 237.297 28.148 236.316 27.078 235.168 27.078H233.336V101.758C233.336 103.902 234.312 105.367 236.297 106.18 237.129 106.516 237.672 106.934 237.945 107.41 238.215 107.887 238.34 108.875 238.34 110.402 238.34 112.324 238.152 113.457 237.797 113.793 237.422 114.109 236.59 114.27 235.273 114.27H208.301C207.258 114.27 206.57 114.07 206.258 113.695 205.941 113.297 205.797 112.188 205.797 110.363 205.797 108.203 206.445 106.875 207.715 106.418 208.949 105.961 209.738 105.508 210.055 105.051 210.387 104.613 210.555 103.84 210.555 102.77ZM280.879 27.672V60.859H285.176C286.344 60.859 287.199 60.621 287.762 60.164 288.301 59.691 288.719 58.68 289.012 57.133 289.492 54.355 289.891 52.711 290.18 52.156 290.492 51.621 290.973 51.344 291.621 51.344 294.793 51.344 296.586 51.461 297.023 51.719 297.441 51.977 297.648 52.949 297.648 54.652V74.004C297.648 75.215 297.441 76.004 297.043 76.363 296.629 76.738 295.375 76.918 293.27 76.918 291.891 76.918 290.973 76.68 290.516 76.184 290.035 75.707 289.574 74.34 289.137 72.102 288.68 70.059 288.242 68.809 287.805 68.336 287.363 67.879 286.676 67.641 285.758 67.641H280.875V107.609H284.152C286.176 107.609 287.574 107.074 288.344 106.023 289.098 104.949 290.328 101.898 292.016 96.824 292.707 94.703 293.414 93.312 294.145 92.66 294.895 92.004 296.168 91.668 298.004 91.668 300.527 91.668 301.781 92.441 301.781 93.988 301.781 94.465 301.695 95.137 301.531 96.027L299.254 109.215C298.859 111.613 298.523 113.059 298.254 113.535 298.004 114.031 297.168 114.27 295.793 114.27H254.965C253.965 114.27 253.297 114.051 253.027 113.594 252.734 113.16 252.59 111.871 252.59 109.727 252.59 108.383 253.316 107.391 254.758 106.777 256.992 105.883 258.094 104.652 258.094 103.105V30.645C258.055 29.914 257.137 29.18 255.344 28.445 254.133 27.949 253.402 27.473 253.172 26.996 252.941 26.543 252.84 25.434 252.84 23.648 252.84 22.16 252.965 21.25 253.215 20.973 253.445 20.676 254.172 20.535 255.344 20.535H294.477C295.457 20.535 296.168 20.695 296.605 20.992 297.062 21.309 297.418 22.043 297.648 23.211L300.777 38.219C300.945 38.992 301.027 39.508 301.027 39.785 301.027 40.836 300.047 41.352 298.086 41.352 295.875 41.352 294.395 41.113 293.664 40.617 292.934 40.141 292.203 38.934 291.516 36.988 290.242 33.5 289.137 31.062 288.199 29.715 287.281 28.348 286.238 27.672 285.09 27.672ZM280.879 27.672" fill="#ffffff" fill-rule="evenodd"/>
<path d="M450.176 23.82C449.09 22.738 448.012 21.645 446.93 20.555 444.199 17.812 441.465 15.07 438.734 12.324 434.875 8.449 431.012 4.57 427.152 .691 417.348 5.238 406.609 7.055 395.895 5.027 392.707 4.426 389.539 3.484 386.566 2.195 385.562 1.762 384.445 1.242 383.477 .668 382.504 1.242 381.391 1.762 380.387 2.195 377.414 3.484 374.246 4.426 371.059 5.027 360.344 7.055 349.605 5.238 339.801 .691 335.934 4.578 332.066 8.461 328.199 12.344 325.465 15.09 322.734 17.836 320 20.578 318.926 21.656 317.859 22.746 316.777 23.82 317.02 24.113 317.242 24.43 317.457 24.734 318.219 25.812 318.93 26.938 319.633 28.051 320.367 29.223 321.09 30.402 321.805 31.59 322.203 32.25 322.621 32.926 322.992 33.605 326.266 39.539 327.047 46.742 326.379 53.387 325.641 60.738 322.879 67.523 320.348 74.406 319.113 77.766 317.934 81.156 317.102 84.637 316.266 88.145 315.809 91.684 315.953 95.293 316.551 110.16 326.176 120.637 340.043 125.516 346.895 127.93 354.125 129.051 361.191 130.664 368.793 132.402 377.066 134.871 383.477 139.414 389.887 134.871 398.16 132.402 405.762 130.664 412.828 129.051 420.059 127.93 426.91 125.516 440.773 120.637 450.398 110.16 451 95.293 451.145 91.684 450.688 88.145 449.852 84.637 449.02 81.156 447.84 77.766 446.605 74.406 444.074 67.523 441.312 60.738 440.574 53.387 439.906 46.742 440.688 39.539 443.957 33.605 444.332 32.926 444.75 32.254 445.148 31.59 445.859 30.406 446.582 29.227 447.32 28.055 448.02 26.938 448.734 25.812 449.492 24.734 449.707 24.43 449.934 24.113 450.176 23.82" fill="#ffffff" fill-rule="evenodd"/>
<path stroke-width="1.152592" stroke-linecap="butt" stroke-miterlimit="4" stroke-linejoin="miter" fill="none" stroke="#000000" d="M450.176 23.82C449.09 22.738 448.012 21.645 446.93 20.555 444.199 17.812 441.465 15.07 438.734 12.324 434.875 8.449 431.012 4.57 427.152 .691 417.348 5.238 406.609 7.055 395.895 5.027 392.707 4.426 389.539 3.484 386.566 2.195 385.562 1.762 384.445 1.242 383.477 .668 382.504 1.242 381.391 1.762 380.387 2.195 377.414 3.484 374.246 4.426 371.059 5.027 360.344 7.055 349.605 5.238 339.801 .691 335.934 4.578 332.066 8.461 328.199 12.344 325.465 15.09 322.734 17.836 320 20.578 318.926 21.656 317.859 22.746 316.777 23.82 317.02 24.113 317.242 24.43 317.457 24.734 318.219 25.812 318.93 26.938 319.633 28.051 320.367 29.223 321.09 30.402 321.805 31.59 322.203 32.25 322.621 32.926 322.992 33.605 326.266 39.539 327.047 46.742 326.379 53.387 325.641 60.738 322.879 67.523 320.348 74.406 319.113 77.766 317.934 81.156 317.102 84.637 316.266 88.145 315.809 91.684 315.953 95.293 316.551 110.16 326.176 120.637 340.043 125.516 346.895 127.93 354.125 129.051 361.191 130.664 368.793 132.402 377.066 134.871 383.477 139.414 389.887 134.871 398.16 132.402 405.762 130.664 412.828 129.051 420.059 127.93 426.91 125.516 440.773 120.637 450.398 110.16 451 95.293 451.145 91.684 450.688 88.145 449.852 84.637 449.02 81.156 447.84 77.766 446.605 74.406 444.074 67.523 441.312 60.738 440.574 53.387 439.906 46.742 440.688 39.539 443.957 33.605 444.332 32.926 444.75 32.254 445.148 31.59 445.859 30.406 446.582 29.227 447.32 28.055 448.02 26.938 448.734 25.812 449.492 24.734 449.707 24.43 449.934 24.113 450.176 23.82"/>
<path d="M331.91 42.02H434.73C435.223 39.797 435.941 37.645 436.938 35.637 437.316 34.871 441.789 26.742 441.734 26.688 440.617 25.57 425.055 9.695 425.055 9.695 402.758 20.117 383.32 8.523 383.32 8.523 383.32 8.523 363.883 20.117 341.586 9.695 341.586 9.695 326.023 25.57 324.906 26.688 324.852 26.742 329.324 34.871 329.703 35.637 330.699 37.645 331.418 39.797 331.91 42.02" fill="#ee2a22"/>
<path d="M434.145 54.68C433.91 52.535 433.828 50.305 433.938 48.07H332.703C332.809 50.305 332.734 52.535 332.496 54.68 331.105 67.258 322.582 78.082 322.258 90.871 321.922 103.996 331.523 115.121 344.094 119.484 350.207 121.605 356.641 122.594 362.945 124.012 369.73 125.543 377.676 128.039 383.32 132.125 388.965 128.039 396.91 125.543 403.695 124.012 410 122.594 416.434 121.605 422.547 119.484 435.117 115.121 444.719 103.996 444.383 90.871 444.055 78.082 435.535 67.258 434.145 54.68" fill="#2f3192"/>
<path d="M344.465 27.738H347.344C348.496 27.738 349.344 27.551 349.883 27.18 350.422 26.809 350.691 26.211 350.691 25.398 350.691 24.559 350.438 23.961 349.922 23.602 349.406 23.238 348.52 23.055 347.262 23.055H344.465ZM344.465 33.645C344.465 34.273 344.551 34.668 344.73 34.836 344.91 35 345.363 35.086 346.094 35.086H347.234V36.848H338.477V35.086H339.426C340.148 35.086 340.598 35.004 340.773 34.844 340.949 34.68 341.031 34.281 341.031 33.645V24.492C341.031 23.859 340.949 23.461 340.773 23.301 340.598 23.137 340.148 23.055 339.426 23.055H338.477V21.293H348.23C350.273 21.293 351.789 21.598 352.781 22.211 353.773 22.824 354.266 23.762 354.266 25.031 354.266 26.148 353.875 27.039 353.082 27.707 352.297 28.375 351.133 28.797 349.594 28.969 350.762 29.137 351.574 29.449 352.039 29.914 352.504 30.379 352.773 31.184 352.855 32.332L352.961 33.727C353.004 34.27 353.07 34.621 353.176 34.789 353.277 34.953 353.449 35.039 353.684 35.039 354.152 35.039 354.406 34.191 354.438 32.488 354.438 32.457 354.438 32.438 354.438 32.426H355.98C355.996 32.52 356.012 32.625 356.016 32.734 356.02 32.84 356.02 33 356.02 33.203 356.02 34.629 355.746 35.668 355.203 36.324 354.664 36.984 353.805 37.312 352.633 37.312 351.668 37.312 350.91 37.059 350.363 36.555 349.82 36.047 349.527 35.348 349.5 34.449L349.426 32.625C349.375 31.41 349.098 30.586 348.578 30.152 348.059 29.715 347.078 29.5 345.629 29.5H344.461V33.645ZM344.465 33.645" fill="#ffffff"/>
<path d="M361.445 29.059C361.445 31.07 361.898 32.633 362.809 33.754 363.719 34.875 364.98 35.434 366.598 35.434 368.211 35.434 369.469 34.875 370.375 33.758 371.281 32.641 371.734 31.074 371.734 29.059 371.734 27.051 371.285 25.488 370.379 24.379 369.48 23.266 368.219 22.707 366.598 22.707 364.98 22.707 363.719 23.266 362.809 24.379 361.898 25.488 361.445 27.051 361.445 29.059ZM357.602 29.059C357.602 26.598 358.426 24.617 360.078 23.109 361.727 21.609 363.902 20.855 366.598 20.855 369.297 20.855 371.465 21.609 373.113 23.109 374.754 24.617 375.578 26.598 375.578 29.059 375.578 31.527 374.754 33.516 373.105 35.023 371.457 36.535 369.289 37.289 366.598 37.289 363.902 37.289 361.727 36.531 360.078 35.02 358.426 33.508 357.602 31.52 357.602 29.059" fill="#ffffff"/>
<path d="M379.348 24.492C379.348 23.859 379.262 23.461 379.09 23.301 378.914 23.137 378.469 23.055 377.746 23.055H376.965V21.293H385.453V23.055H384.414C383.68 23.055 383.227 23.137 383.047 23.305 382.867 23.469 382.777 23.867 382.777 24.492V31.938C382.777 33.023 383.047 33.812 383.586 34.293 384.121 34.777 384.988 35.016 386.184 35.016 387.316 35.016 388.172 34.758 388.746 34.238 389.328 33.727 389.613 32.957 389.613 31.938V24.492C389.613 23.859 389.527 23.461 389.355 23.301 389.18 23.137 388.73 23.055 388.008 23.055H387.059V21.293H394.527V23.055H393.77C393.047 23.055 392.602 23.137 392.43 23.301 392.254 23.461 392.168 23.859 392.168 24.492V31.938C392.168 33.688 391.617 35.02 390.52 35.938 389.414 36.852 387.812 37.312 385.719 37.312 383.633 37.312 382.055 36.855 380.969 35.945 379.887 35.031 379.348 33.695 379.348 31.938ZM379.348 24.492" fill="#ffffff"/>
<path d="M401.562 23.008H401.242C399.941 23.008 398.992 23.379 398.402 24.121 397.809 24.867 397.5 26.074 397.477 27.738H395.602V21.293H410.977V27.738H409.105C409.09 26.094 408.785 24.895 408.188 24.141 407.598 23.387 406.648 23.008 405.352 23.008H404.992V33.648C404.992 34.273 405.082 34.672 405.262 34.84 405.441 35.004 405.895 35.086 406.617 35.086H408.008V36.848H398.547V35.086H399.961C400.68 35.086 401.129 35.004 401.305 34.844 401.477 34.68 401.562 34.281 401.562 33.648ZM401.562 23.008" fill="#ffffff"/>
<path d="M412.102 36.848V35.086H413.051C413.77 35.086 414.223 35.004 414.395 34.844 414.57 34.68 414.656 34.277 414.656 33.641V24.484C414.656 23.855 414.57 23.457 414.395 23.301 414.223 23.137 413.77 23.055 413.051 23.055H412.102V21.293H428.156V27.484H426.309C426.258 25.715 425.953 24.531 425.398 23.941 424.84 23.352 423.707 23.055 422 23.055H418.086V27.832H419.012C420.031 27.832 420.699 27.66 421.02 27.324 421.336 26.988 421.535 26.215 421.613 25.004L423.461 24.992V32.793L421.613 32.777C421.539 31.445 421.348 30.586 421.027 30.199 420.711 29.809 420.047 29.617 419.035 29.617H418.086V35.086H422.359C423.785 35.086 424.766 34.77 425.297 34.141 425.828 33.508 426.164 32.219 426.309 30.266H428.156V36.848ZM412.102 36.848" fill="#ffffff"/>
<path d="M348.281 59.5H369.113C370.004 59.5 370.652 59.34 371.07 59.027 371.559 58.656 371.926 58.43 372.18 58.355 372.418 58.281 372.934 58.25 373.719 58.25 374.902 58.25 375.66 58.312 375.969 58.453 376.297 58.59 376.457 58.848 376.457 59.254 376.457 59.328 376.414 59.703 376.324 60.375L375.539 67.066C375.453 67.715 375.305 68.121 375.082 68.293 374.875 68.453 374.34 68.539 373.496 68.539H353.094L352.355 78.156C355.199 76.789 358.367 76.105 361.859 76.105 367.59 76.105 372.281 77.656 375.926 80.742 379.582 83.832 381.402 87.773 381.402 92.582 381.402 97.777 379.301 101.988 375.082 105.203 370.875 108.422 365.648 110.023 359.402 110.023 354.219 110.023 350.223 108.848 347.41 106.488 344.609 104.125 343.203 101.656 343.203 99.094 343.203 97.629 343.738 96.344 344.816 95.254 345.883 94.156 347.426 93.609 349.422 93.609 351.184 93.609 352.59 94.035 353.629 94.902 354.68 95.758 355.199 96.922 355.199 98.387 355.199 99.051 355.078 99.754 354.855 100.492 354.473 101.723 354.293 102.531 354.293 102.906 354.293 103.621 354.664 104.309 355.434 104.98 356.203 105.652 357.375 105.984 358.93 105.984 360.289 105.984 361.43 105.727 362.348 105.215 363.281 104.703 363.887 103.977 364.184 103.035 364.465 102.094 364.613 100.203 364.613 97.352L364.523 91.738C364.523 87.445 364.082 84.504 363.176 82.914 362.273 81.32 360.734 80.531 358.527 80.531 355.418 80.531 353.242 81.961 352 84.824 351.719 85.5 351.422 85.926 351.109 86.117 350.816 86.301 350.281 86.406 349.527 86.43L347.57 86.492C346.52 86.492 346.004 86.195 346.004 85.586 346.004 85.402 346.016 85.113 346.047 84.738ZM348.281 59.5" fill="#ffffff"/>
<path d="M406.039 58.73C409.758 58.73 413.176 59.82 416.301 61.988 419.441 64.156 421.793 67.105 423.348 70.836 424.918 74.555 425.703 78.98 425.703 84.098 425.703 92.617 423.734 99.059 419.809 103.453 415.887 107.832 411.105 110.023 405.477 110.023 400.148 110.023 395.543 107.941 391.695 103.762 387.828 99.582 385.906 93.191 385.906 84.602 385.906 76.043 387.816 69.586 391.621 65.246 395.441 60.898 400.238 58.73 406.039 58.73ZM408.824 66.711C408.824 65.238 408.586 64.199 408.098 63.633 407.609 63.059 406.809 62.77 405.699 62.77 403.523 62.77 402.426 64.082 402.426 66.711V102.98C402.426 105.023 403.465 106.047 405.523 106.047 406.516 106.047 407.312 105.75 407.922 105.141 408.527 104.531 408.824 103.816 408.824 102.98ZM408.824 66.711" fill="#ffffff"/>
</g>
</svg>
