<?xml version="1.0" encoding="utf-8"?>
<!-- Generator: Adobe Illustrator 27.4.0, SVG Export Plug-In . SVG Version: 6.00 Build 0)  -->
<svg version="1.1" id="Layer_1" xmlns="http://www.w3.org/2000/svg" xmlns:xlink="http://www.w3.org/1999/xlink" x="0px" y="0px"
	 viewBox="0 0 193.3 83.35" style="enable-background:new 0 0 193.3 83.35;" xml:space="preserve">
<style type="text/css">
	.st0{fill-rule:evenodd;clip-rule:evenodd;fill:#E6E7E8;}
	.st1{fill-rule:evenodd;clip-rule:evenodd;}
	.st2{fill-rule:evenodd;clip-rule:evenodd;fill:#FFFFFF;}
	.st3{fill:#EE3724;}
	.st4{fill:#2F3192;}
	.st5{fill:#FFFFFF;}
</style>
<path d="M172.49,69.68V48.45c-0.65-0.28-1.24-0.68-1.54-1.31c-0.25-0.52-0.29-1.15-0.29-1.72c0-0.59,0.02-1.33,0.33-1.86
	c0.42-0.73,1.23-0.98,2.06-0.98h10.32c0.79,0,1.54,0.23,2.03,0.85c0.49,0.62,0.52,1.55,0.52,2.3c0,0.56-0.05,1.16-0.34,1.66
	l-0.01,0.01l-0.01,0.01c-0.35,0.56-0.95,0.87-1.58,1.07c-0.02,0.01-0.05,0.02-0.08,0.03v25.61c0.13-0.25,0.25-0.58,0.33-0.81
	c0.25-0.69,0.46-1.4,0.67-2.1c0.2-0.8,0.54-1.67,1.31-2.13c0.61-0.37,1.39-0.45,2.1-0.45c0.68,0,1.48,0.03,2.07,0.37
	c0.69,0.39,1.03,1.08,1.03,1.83c0,0.38-0.07,0.8-0.13,1.17l-0.78,5.07l0,0.01c-0.1,0.58-0.27,1.23-0.66,1.7
	c-0.51,0.61-1.29,0.81-2.07,0.81h-14.72c-0.72,0-1.38-0.25-1.85-0.76c-0.51,0.57-1.27,0.76-2.03,0.76h-14.72
	c-0.44,0-0.87-0.09-1.24-0.29c-0.44,0.25-0.98,0.29-1.48,0.29h-10.91c-0.51,0-0.97-0.13-1.34-0.37c-0.45,0.28-1.01,0.37-1.57,0.37
	h-5.96c-1.4,0-2.43-0.78-3.1-1.89c-0.11-0.19-0.21-0.38-0.3-0.58c-0.05,0.58-0.17,1.17-0.53,1.61c-0.5,0.63-1.27,0.86-2.08,0.86
	h-9.42c-0.76,0-1.44-0.32-1.87-0.91c-0.35-0.49-0.47-1.07-0.47-1.65c0-0.51-0.01-1.17,0.1-1.67c0.16-0.71,0.68-1.23,1.39-1.48
	c0.06-0.02,0.15-0.06,0.18-0.12c0.06-0.08,0.07-0.25,0.07-0.35V48.66c0-0.06-0.01-0.2-0.03-0.29c-0.53-0.17-1.07-0.41-1.41-0.84
	c-0.41-0.52-0.44-1.23-0.44-1.85c0-0.65,0.09-1.34,0.42-1.92c0.42-0.73,1.17-1.17,2.06-1.17h12.38c2.96,0,5.52,1.1,7.65,3.02
	c2.39,2.17,3.38,4.99,3.38,8.09c0,3.7-1.58,6.4-4.42,8.13c2.54,1.55,3.83,4.11,3.83,7.49v4.89c0.08,0.06,0.16,0.13,0.24,0.2
	c0.31-0.23,0.68-0.39,1.06-0.5l0.02-0.01l0.03-0.01c0.02-0.01,0.05-0.01,0.08-0.02V48.99c0-0.15-0.01-0.46-0.06-0.65
	c-0.06-0.04-0.15-0.07-0.2-0.09c-0.53-0.21-1.05-0.49-1.38-0.95c-0.31-0.44-0.38-0.97-0.38-1.49v-1.12c0-1.26,0.96-2.11,2.28-2.11
	h10.71c0.49,0,0.99,0.06,1.43,0.27c0.39-0.19,0.84-0.27,1.3-0.27h10.32c0.79,0,1.54,0.23,2.03,0.85c0.49,0.62,0.52,1.55,0.52,2.3
	c0,0.56-0.05,1.16-0.34,1.66l-0.01,0.01l-0.01,0.01c-0.35,0.56-0.95,0.87-1.58,1.07c-0.02,0.01-0.05,0.02-0.08,0.03v25.61
	c0.13-0.25,0.25-0.58,0.33-0.81c0.25-0.69,0.46-1.4,0.67-2.1c0.2-0.8,0.54-1.67,1.31-2.13c0.61-0.37,1.39-0.45,2.1-0.45
	c0.68,0,1.48,0.03,2.08,0.37C172.09,69.18,172.32,69.41,172.49,69.68 M172.49,73.24l-0.14,0.94c0.12-0.14,0.14-0.66,0.14-0.8V73.24z
	 M153.07,47.99c-0.24,0.13-0.51,0.21-0.8,0.26c-0.02,0-0.06,0.01-0.09,0.02c-0.02,0.07-0.02,0.17-0.02,0.22v25.34
	c0.05,0.03,0.1,0.06,0.14,0.07c0.31,0.14,0.63,0.31,0.9,0.51c0.14-0.07,0.3-0.14,0.46-0.19l0.02-0.01l0.02-0.01
	c0.01,0,0.03-0.01,0.04-0.01c0.13-0.11,0.16-0.67,0.16-0.82V48.45C153.6,48.32,153.32,48.17,153.07,47.99z M127.96,74.52
	c0-0.12-0.01-0.25-0.01-0.37v-8.53c0-0.22-0.03-0.66-0.21-0.83c-0.09-0.08-0.25-0.13-0.41-0.17v8.99c0,0.09,0,0.22,0,0.34
	C127.58,74.12,127.79,74.31,127.96,74.52z M107.11,77.83c-1.44,1.38-3.25,2.17-5.4,2.17c-4.17,0-7-2.57-8.89-5.88
	c-2.26-3.95-3.12-8.36-3.12-12.82c0-4.71,0.84-9.62,3.55-13.67c2.09-3.12,5.04-5.61,9.13-5.61c1.51,0,2.94,0.33,4.23,1.03
	c0.46-0.64,1.19-1.03,2.07-1.03h0.32l0.83,0.05l0.07,0.01c1.19,0.18,1.94,1.01,2.17,2.11l1.43,6.73c0.11,0.52,0.25,1.16,0.25,1.69
	c0,0.72-0.34,1.37-0.98,1.77c-0.52,0.33-1.13,0.43-1.74,0.43c-0.9,0-1.91-0.11-2.58-0.74c-0.3-0.28-0.55-0.68-0.76-1.03
	c-0.31-0.52-0.6-1.06-0.88-1.59c-0.37-0.7-0.75-1.4-1.19-2.06c-0.26-0.39-0.56-0.83-0.9-1.16c-0.28-0.27-0.65-0.56-1.07-0.56
	c-0.45,0-0.75,0.1-1,0.47c-0.45,0.68-0.53,1.9-0.53,2.67v6.13c0.46-0.22,0.99-0.28,1.52-0.28h9.47c0.74,0,1.5,0.15,2.04,0.68
	c0.56,0.55,0.66,1.33,0.66,2.07c0,0.57-0.03,1.26-0.29,1.78c-0.28,0.56-0.78,0.92-1.36,1.16v14.25c0,0.68-0.01,1.64-0.33,2.26
	l-0.01,0.03l-0.01,0.03c-0.46,0.82-1.38,1.1-2.3,1.1c-0.49,0-1.03-0.02-1.5-0.17c-0.54-0.17-1.02-0.55-1.42-0.92
	C108.16,78.51,107.66,78.12,107.11,77.83z M102.12,62.09V73.5c0,0.2,0.03,0.79,0.15,1.03c0.03,0,0.09,0,0.12-0.01
	c0.14-0.19,0.17-0.82,0.17-1.02V62.45c0-0.03,0-0.07,0-0.12C102.4,62.26,102.25,62.18,102.12,62.09z M127.32,48.01V59.2
	c0.02,0,0.04-0.01,0.06-0.02c0.07-0.04,0.14-0.16,0.17-0.23c0.34-0.64,0.39-1.78,0.39-2.49v-6.78c0-0.32-0.04-1.24-0.3-1.5
	C127.58,48.11,127.46,48.05,127.32,48.01z M172.74,5.98c0.44-0.45,1.09-0.55,1.72-0.55h13.04c0.54,0,1.08,0.1,1.53,0.4
	c0.54,0.37,0.79,0.96,0.9,1.56l1.04,4.97c0.05,0.25,0.11,0.52,0.11,0.78c0,0.66-0.36,1.23-0.96,1.55c-0.43,0.23-0.93,0.3-1.42,0.3
	c-0.75,0-1.64-0.06-2.28-0.48c-0.64-0.42-0.99-1.18-1.24-1.86c-0.17-0.46-0.35-0.92-0.55-1.37c-0.08-0.17-0.16-0.35-0.26-0.52v7.49
	c0.05-0.25,0.1-0.5,0.16-0.75c0.07-0.28,0.15-0.59,0.28-0.85l0.01-0.03l0.01-0.03c0.35-0.6,0.98-0.95,1.71-0.95
	c0.45,0,0.9,0,1.34,0.03c0.41,0.03,0.84,0.08,1.2,0.29l0.01,0.01l0.01,0.01c0.75,0.46,0.85,1.32,0.85,2.09v6.41
	c0,0.64-0.13,1.29-0.64,1.74c-0.58,0.52-1.47,0.55-2.22,0.55c-0.72,0-1.45-0.15-1.96-0.68c-0.45-0.46-0.64-1.22-0.77-1.85v9.95
	c0.01-0.03,0.02-0.05,0.04-0.07c0.09-0.18,0.17-0.37,0.24-0.56c0.25-0.63,0.48-1.28,0.69-1.93c0.22-0.67,0.54-1.47,1.09-1.95
	c0.61-0.53,1.44-0.68,2.24-0.68c0.59,0,1.2,0.09,1.71,0.41c0.62,0.38,0.95,1,0.95,1.69c0,0.3-0.05,0.61-0.1,0.9l-0.76,4.36
	c-0.06,0.34-0.12,0.68-0.2,1.02c-0.06,0.27-0.14,0.55-0.27,0.8c-0.4,0.76-1.25,0.97-2.07,0.97h-13.6c-0.75,0-1.47-0.24-1.86-0.88
	c-0.33-0.54-0.34-1.35-0.34-1.95c0-1,0.6-1.78,1.55-2.19l0.02-0.01l0.02-0.01c0.06-0.02,0.17-0.07,0.25-0.12V10.62
	c-0.03-0.01-0.05-0.02-0.07-0.03c-0.11-0.05-0.22-0.09-0.33-0.15l0.13,1.43c0.03,0.35,0.05,0.7,0.05,1.06
	c0,0.49-0.06,0.99-0.28,1.44c-0.41,0.84-1.33,1.08-2.23,1.08c-0.7,0-1.53-0.04-2.12-0.42c-0.24-0.16-0.43-0.36-0.58-0.6v19.24
	c0,0.04,0,0.15,0.03,0.19c0.02,0.02,0.09,0.05,0.11,0.06c0.51,0.21,0.96,0.52,1.23,0.99c0.27,0.48,0.3,1.09,0.3,1.62
	c0,0.7-0.04,1.54-0.59,2.06l-0.03,0.03l-0.03,0.03c-0.49,0.41-1.14,0.49-1.77,0.49h-8.99c-0.68,0-1.35-0.17-1.78-0.7L157,38.43
	l-0.01-0.01c-0.41-0.52-0.43-1.27-0.43-1.9c0-1.07,0.4-2.13,1.54-2.55c0.01-0.01,0.03-0.01,0.04-0.02V14.5
	c-0.09,0.13-0.19,0.25-0.3,0.36l-0.01,0.01l-0.01,0.01c-0.58,0.53-1.42,0.65-2.19,0.65c-0.7,0-1.47-0.07-2.03-0.51
	c-0.29-0.23-0.48-0.51-0.6-0.83V31.7c0,2.13-0.62,4.12-2.22,5.66c-1.63,1.56-3.79,2.14-6.07,2.14c-2.42,0-4.81-0.56-6.55-2.25
	c-1.74-1.69-2.31-3.97-2.31-6.26V10.76c-0.03-0.01-0.06-0.03-0.08-0.04c-0.48-0.2-0.93-0.47-1.2-0.91l-0.01-0.01l-0.01-0.01
	c-0.23-0.4-0.25-0.88-0.25-1.33c0-0.59,0.01-1.42,0.28-1.96c0.38-0.79,1.23-1.06,2.09-1.06h8.81c0.45,0,0.9,0.09,1.26,0.31
	c0.36-0.22,0.79-0.31,1.23-0.31h4.4c0.62,0,1.15,0.2,1.53,0.55c0.57-0.47,1.39-0.55,2.12-0.55h14.92
	C171.59,5.42,172.27,5.51,172.74,5.98z M146.72,10.18c-0.13,0.11-0.28,0.21-0.44,0.29c0,0-0.01,0-0.01,0.01
	c-0.01,0.1-0.01,0.2-0.01,0.27v21.56c0,0.18,0.02,0.39,0.16,0.52l0.01,0.01l0.01,0.01c0.1,0.1,0.19,0.12,0.33,0.12
	c0.1,0,0.16-0.07,0.22-0.13c0.14-0.16,0.22-0.32,0.22-0.52V10.76c0-0.05,0-0.12,0-0.18c-0.04-0.03-0.09-0.06-0.12-0.09
	C146.95,10.39,146.83,10.29,146.72,10.18z M112.95,16.31c0.45-2.21,1.2-4.36,2.4-6.29c1.93-3.11,4.76-5.1,8.65-5.1
	c2.34,0,4.41,0.75,6.13,2.25c1.84,1.59,3.08,3.72,3.94,5.91c1.16,2.94,1.47,6.34,1.47,9.45c0,4.07-0.74,8.19-2.88,11.77
	c-1.93,3.24-4.84,5.21-8.83,5.21c-3.87,0-6.68-1.98-8.57-5.09c-2.2-3.62-2.88-7.97-2.88-12.09c0-1.38,0.07-2.78,0.25-4.18
	c-0.56,2.08-1.83,3.68-3.7,4.82c2.31,1.41,3.49,3.74,3.49,6.82v4.46c0.67,0.5,1,1.23,1,2.05c0,0.61,0,1.47-0.33,2.01l-0.02,0.03
	l-0.02,0.03c-0.44,0.62-1.18,0.8-1.92,0.8h-5.43c-1.27,0-2.22-0.71-2.83-1.72c-0.1-0.17-0.19-0.35-0.28-0.53
	c-0.04,0.53-0.16,1.07-0.48,1.47c-0.46,0.57-1.16,0.78-1.89,0.78h-8.58c-0.69,0-1.31-0.29-1.7-0.83c-0.32-0.44-0.43-0.97-0.43-1.51
	c0-0.46-0.01-1.07,0.09-1.52c0.15-0.65,0.62-1.12,1.26-1.35c0.05-0.02,0.14-0.06,0.17-0.1c0.05-0.07,0.06-0.23,0.06-0.31V10.95
	c0-0.06,0-0.18-0.02-0.27c-0.49-0.15-0.97-0.37-1.28-0.77c-0.37-0.47-0.4-1.12-0.4-1.68c0-0.59,0.08-1.22,0.38-1.75
	c0.38-0.67,1.07-1.06,1.87-1.06h11.27c2.7,0,5.03,1,6.97,2.75c2.18,1.97,3.07,4.54,3.07,7.37C112.98,15.8,112.97,16.06,112.95,16.31
	z M102.09,34.51c0-0.11-0.01-0.22-0.01-0.33v-7.77c0-0.2-0.02-0.6-0.19-0.76c-0.08-0.08-0.23-0.12-0.38-0.15v8.19
	c0,0.09,0,0.2,0,0.31C101.74,34.14,101.93,34.32,102.09,34.51z M101.51,10.37v10.19c0.02,0,0.04-0.01,0.05-0.01
	c0.06-0.04,0.13-0.15,0.16-0.21c0.31-0.59,0.36-1.62,0.36-2.26v-6.18c0-0.29-0.04-1.13-0.27-1.37
	C101.74,10.45,101.63,10.4,101.51,10.37z M123.95,34.72c0.01-0.01,0.01-0.02,0.02-0.02c0.16-0.24,0.23-0.5,0.23-0.79v-23.1
	c0-0.21-0.03-0.87-0.18-1.08c-0.01,0-0.03,0-0.04,0c-0.02,0.02-0.05,0.05-0.07,0.07l-0.01,0.01l-0.01,0.01
	c-0.15,0.18-0.19,0.42-0.19,0.64v23.23c0,0.26,0.03,0.76,0.2,0.98C123.93,34.69,123.94,34.7,123.95,34.72z"/>
<path class="st0" d="M182.97,9.12v11h1.43c0.39,0,0.67-0.08,0.86-0.23c0.18-0.16,0.32-0.49,0.42-1.01c0.16-0.92,0.29-1.47,0.39-1.65
	c0.1-0.18,0.26-0.27,0.48-0.27c1.06,0,1.65,0.04,1.8,0.12c0.14,0.09,0.21,0.41,0.21,0.97v6.41c0,0.4-0.07,0.66-0.2,0.78
	c-0.14,0.12-0.56,0.18-1.26,0.18c-0.46,0-0.76-0.08-0.92-0.24c-0.16-0.16-0.31-0.61-0.46-1.35c-0.15-0.68-0.3-1.09-0.44-1.25
	c-0.15-0.15-0.38-0.23-0.68-0.23h-1.63v13.25h1.09c0.67,0,1.14-0.18,1.4-0.53c0.25-0.35,0.66-1.37,1.22-3.05
	c0.23-0.7,0.47-1.16,0.71-1.38c0.25-0.22,0.67-0.33,1.29-0.33c0.84,0,1.26,0.26,1.26,0.77c0,0.16-0.03,0.38-0.08,0.68l-0.76,4.37
	c-0.13,0.79-0.24,1.27-0.33,1.43c-0.08,0.16-0.36,0.24-0.82,0.24h-13.6c-0.33,0-0.56-0.07-0.65-0.22c-0.1-0.14-0.15-0.57-0.15-1.28
	c0-0.45,0.24-0.78,0.72-0.98c0.74-0.3,1.11-0.7,1.11-1.22V10.1c-0.01-0.24-0.32-0.49-0.92-0.73c-0.4-0.16-0.65-0.32-0.72-0.48
	c-0.08-0.15-0.11-0.52-0.11-1.11c0-0.49,0.04-0.8,0.13-0.89c0.08-0.1,0.32-0.14,0.71-0.14h13.04c0.33,0,0.56,0.05,0.71,0.15
	c0.15,0.11,0.27,0.35,0.35,0.74l1.04,4.97c0.06,0.26,0.08,0.43,0.08,0.52c0,0.35-0.33,0.52-0.98,0.52c-0.74,0-1.23-0.08-1.47-0.24
	c-0.24-0.16-0.49-0.56-0.72-1.2c-0.42-1.16-0.79-1.96-1.11-2.41c-0.31-0.45-0.65-0.68-1.04-0.68H182.97z M159.55,8.92h-0.92
	c-0.3,0-0.54,0.19-0.73,0.57c-0.19,0.38-0.39,1.4-0.6,3.07c-0.1,0.73-0.24,1.18-0.44,1.37c-0.2,0.18-0.61,0.28-1.22,0.28
	c-0.58,0-0.96-0.07-1.13-0.2c-0.17-0.13-0.26-0.4-0.26-0.8c0-0.24,0.01-0.47,0.02-0.7l0.25-4.49c0.03-0.53,0.12-0.87,0.28-1.02
	c0.17-0.16,0.57-0.24,1.22-0.24h14.92c0.43,0,0.69,0.05,0.79,0.15c0.1,0.11,0.17,0.48,0.22,1.12l0.35,3.97
	c0.03,0.31,0.04,0.62,0.04,0.95c0,0.38-0.05,0.68-0.15,0.88c-0.1,0.21-0.42,0.31-0.96,0.31c-0.69,0-1.13-0.06-1.33-0.19
	c-0.2-0.12-0.35-0.53-0.48-1.21c-0.22-1.12-0.46-2.03-0.72-2.74c-0.26-0.71-0.58-1.06-0.97-1.06h-0.61v24.75
	c0,0.71,0.33,1.2,0.99,1.47c0.28,0.11,0.46,0.25,0.55,0.41c0.09,0.16,0.13,0.49,0.13,0.99c0,0.64-0.06,1.01-0.18,1.12
	c-0.13,0.11-0.4,0.16-0.84,0.16h-8.99c-0.35,0-0.58-0.07-0.68-0.19c-0.1-0.13-0.15-0.5-0.15-1.1c0-0.72,0.22-1.16,0.64-1.31
	c0.41-0.15,0.67-0.3,0.78-0.45c0.11-0.14,0.17-0.4,0.17-0.76V8.92z M136.68,6.75h8.81c0.3,0,0.49,0.06,0.57,0.18
	c0.08,0.12,0.12,0.5,0.12,1.12c0,0.63-0.19,1.05-0.58,1.25c-0.3,0.15-0.5,0.32-0.6,0.48c-0.1,0.17-0.15,0.49-0.15,0.97v21.56
	c0,0.59,0.18,1.07,0.54,1.43c0.35,0.37,0.81,0.55,1.37,0.55c0.51,0,0.95-0.2,1.3-0.62c0.36-0.41,0.54-0.87,0.54-1.37V10.76
	c0-0.37-0.03-0.63-0.11-0.78c-0.08-0.14-0.26-0.33-0.56-0.55c-0.47-0.34-0.7-0.85-0.7-1.54c0-0.54,0.06-0.86,0.19-0.97
	c0.12-0.11,0.31-0.16,0.56-0.16h4.4c0.49,0,0.73,0.23,0.73,0.69v0.92c0,0.41-0.03,0.66-0.08,0.78c-0.05,0.11-0.21,0.2-0.47,0.3
	c-0.63,0.2-0.95,0.62-0.95,1.25V31.7c0,1.99-0.6,3.57-1.82,4.73c-1.21,1.16-2.9,1.74-5.07,1.74c-2.43,0-4.27-0.62-5.55-1.85
	c-1.27-1.24-1.91-3.01-1.91-5.34V10.71c0-0.54-0.3-0.94-0.9-1.2c-0.31-0.13-0.49-0.25-0.55-0.35c-0.06-0.11-0.09-0.35-0.09-0.71
	c0-0.74,0.05-1.22,0.15-1.41C135.95,6.85,136.23,6.75,136.68,6.75z M125.61,10.81c0-1.6-0.54-2.4-1.63-2.4
	c-0.46,0-0.85,0.2-1.17,0.6c-0.33,0.39-0.49,0.89-0.49,1.46v23.23c0,0.78,0.16,1.37,0.49,1.78c0.32,0.4,0.71,0.6,1.15,0.6
	c0.49,0,0.9-0.22,1.2-0.68c0.3-0.45,0.45-0.95,0.45-1.5V10.81z M124.01,6.24c2,0,3.72,0.63,5.18,1.9c1.46,1.26,2.65,3.06,3.58,5.39
	c0.92,2.34,1.38,5.34,1.38,8.99c0,4.39-0.9,8.09-2.7,11.12c-1.8,3.02-4.34,4.53-7.61,4.53c-3.11,0-5.56-1.48-7.35-4.43
	c-1.79-2.95-2.69-6.76-2.69-11.43c0-4.78,0.92-8.66,2.76-11.62C118.41,7.72,120.89,6.24,124.01,6.24z M100.11,8.96v12.93h1.34
	c1.36,0,2.04-1.27,2.04-3.82v-6.18c0-1.08-0.22-1.83-0.65-2.27c-0.44-0.44-1.11-0.66-2.03-0.66H100.11z M100.11,24.14v9.55
	c0,0.45,0.03,0.76,0.09,0.91c0.06,0.15,0.22,0.32,0.5,0.48c0.35,0.22,0.54,0.58,0.54,1.1c0,0.74-0.07,1.2-0.22,1.37
	c-0.14,0.18-0.4,0.26-0.78,0.26h-8.58c-0.49,0-0.73-0.33-0.73-1.01c0-0.64,0.02-1.06,0.06-1.24c0.04-0.18,0.17-0.32,0.4-0.39
	c0.74-0.28,1.12-0.83,1.12-1.66V10.95c0-0.83-0.33-1.35-0.98-1.52c-0.32-0.1-0.53-0.2-0.6-0.3c-0.08-0.11-0.13-0.4-0.13-0.89
	c0-0.99,0.28-1.48,0.85-1.48h11.27c2.24,0,4.24,0.8,6,2.39c1.76,1.59,2.64,3.73,2.64,6.41c0,3.81-2.06,6.3-6.18,7.47
	c3.76,0.78,5.64,3.04,5.64,6.75v4.58c0,0.39,0.15,0.67,0.46,0.87c0.36,0.23,0.54,0.58,0.54,1.06c0,0.75-0.05,1.19-0.14,1.33
	c-0.1,0.14-0.35,0.21-0.75,0.21h-5.43c-0.65,0-1.18-0.35-1.61-1.05c-0.42-0.7-0.63-1.56-0.63-2.59v-7.77c0-1.52-0.82-2.27-2.45-2.27
	H100.11z"/>
<path class="st0" d="M163.76,75.77h1.3c0.67,0,1.16-0.25,1.48-0.74c0.32-0.5,0.73-1.64,1.25-3.44c0.18-0.69,0.39-1.12,0.64-1.26
	c0.24-0.15,0.67-0.22,1.27-0.22c0.66,0,1.09,0.05,1.28,0.16c0.19,0.11,0.28,0.3,0.28,0.58c0,0.19-0.04,0.51-0.11,0.95l-0.78,5.06
	c-0.09,0.52-0.21,0.87-0.35,1.04c-0.14,0.17-0.43,0.25-0.86,0.25h-14.72c-0.63,0-0.94-0.37-0.94-1.1c0-0.56,0.04-0.92,0.12-1.09
	c0.08-0.16,0.26-0.28,0.53-0.37c0.85-0.25,1.27-1,1.27-2.22v-25.1c0-0.52-0.27-0.89-0.82-1.12c-0.47-0.19-0.75-0.39-0.85-0.61
	c-0.11-0.23-0.16-0.61-0.16-1.13c0-0.62,0.05-1.01,0.14-1.15c0.08-0.15,0.33-0.22,0.71-0.22h10.32c0.39,0,0.66,0.09,0.79,0.27
	c0.15,0.17,0.21,0.65,0.21,1.43c0,0.47-0.05,0.78-0.15,0.94c-0.1,0.16-0.35,0.3-0.75,0.43c-0.75,0.24-1.12,0.71-1.12,1.39V75.77z
	 M182.37,75.77h1.3c0.67,0,1.16-0.25,1.48-0.74c0.32-0.5,0.73-1.64,1.25-3.44c0.18-0.69,0.39-1.12,0.64-1.26
	c0.24-0.15,0.67-0.22,1.27-0.22c0.66,0,1.09,0.05,1.28,0.16c0.19,0.11,0.28,0.3,0.28,0.58c0,0.19-0.04,0.51-0.11,0.95l-0.78,5.06
	c-0.09,0.52-0.21,0.87-0.35,1.04c-0.14,0.17-0.43,0.25-0.86,0.25h-14.72c-0.63,0-0.94-0.37-0.94-1.1c0-0.56,0.04-0.92,0.12-1.09
	c0.08-0.16,0.26-0.28,0.53-0.37c0.85-0.25,1.27-1,1.27-2.22v-25.1c0-0.52-0.27-0.89-0.82-1.12c-0.47-0.19-0.75-0.39-0.85-0.61
	c-0.11-0.23-0.16-0.61-0.16-1.13c0-0.62,0.05-1.01,0.14-1.15c0.08-0.15,0.33-0.22,0.71-0.22h10.32c0.39,0,0.66,0.09,0.79,0.27
	c0.14,0.17,0.21,0.65,0.21,1.43c0,0.47-0.05,0.78-0.15,0.94c-0.1,0.16-0.35,0.3-0.75,0.43c-0.75,0.24-1.12,0.71-1.12,1.39V75.77z
	 M125.78,63.13v10.49c0,0.5,0.03,0.83,0.1,1c0.06,0.17,0.24,0.35,0.55,0.53c0.39,0.25,0.59,0.64,0.59,1.21
	c0,0.82-0.08,1.32-0.24,1.51c-0.15,0.19-0.43,0.29-0.85,0.29h-9.42c-0.53,0-0.8-0.37-0.8-1.1c0-0.7,0.02-1.16,0.07-1.36
	c0.05-0.2,0.19-0.35,0.44-0.43c0.82-0.31,1.23-0.92,1.23-1.82V48.66c0-0.92-0.36-1.48-1.08-1.67c-0.35-0.11-0.58-0.22-0.66-0.33
	c-0.09-0.12-0.14-0.44-0.14-0.98c0-1.09,0.31-1.63,0.94-1.63h12.38c2.46,0,4.65,0.87,6.59,2.62c1.93,1.75,2.9,4.09,2.9,7.03
	c0,4.18-2.26,6.92-6.78,8.2c4.13,0.86,6.19,3.33,6.19,7.42v5.03c0,0.43,0.17,0.74,0.5,0.95c0.4,0.25,0.6,0.64,0.6,1.16
	c0,0.82-0.05,1.31-0.15,1.46c-0.11,0.15-0.38,0.23-0.82,0.23h-5.96c-0.72,0-1.3-0.38-1.76-1.15c-0.46-0.76-0.69-1.72-0.69-2.84
	v-8.53c0-1.67-0.9-2.5-2.69-2.5H125.78z M125.78,46.47v14.2h1.47c1.49,0,2.24-1.4,2.24-4.19v-6.78c0-1.18-0.24-2.01-0.71-2.5
	c-0.48-0.48-1.22-0.73-2.23-0.73H125.78z M106.67,76.09c-1.34,1.64-3,2.45-4.97,2.45c-3.08,0-5.59-1.7-7.54-5.11
	c-1.95-3.41-2.93-7.45-2.93-12.13c0-5.3,1.11-9.6,3.31-12.89c2.21-3.29,4.82-4.93,7.83-4.93c1.44,0,2.72,0.35,3.85,1.05
	c0.36,0.22,0.63,0.32,0.82,0.32c0.27,0,0.5-0.24,0.69-0.71c0.18-0.44,0.5-0.66,0.94-0.66h0.27l0.71,0.04
	c0.48,0.07,0.78,0.39,0.9,0.95l1.43,6.73c0.15,0.69,0.22,1.16,0.22,1.4c0,0.5-0.39,0.74-1.18,0.74c-0.78,0-1.27-0.11-1.5-0.32
	c-0.22-0.21-0.67-0.95-1.34-2.23c-0.89-1.72-1.68-2.91-2.36-3.59c-0.68-0.67-1.4-1.01-2.18-1.01c-2.05,0-3.07,1.54-3.07,4.6V73.5
	c0,1.66,0.56,2.49,1.69,2.49c1.23,0,1.84-0.83,1.84-2.49V62.45c0-0.71-0.27-1.18-0.79-1.39c-0.57-0.22-0.85-0.69-0.85-1.38
	c0-0.75,0.08-1.2,0.22-1.34c0.15-0.15,0.47-0.22,0.96-0.22h9.47c0.46,0,0.77,0.08,0.92,0.23c0.16,0.16,0.24,0.51,0.24,1.06
	c0,0.58-0.05,0.97-0.14,1.16c-0.1,0.2-0.33,0.36-0.7,0.49c-0.53,0.18-0.8,0.57-0.8,1.16v14.38c0,0.87-0.06,1.4-0.18,1.62
	c-0.12,0.22-0.44,0.32-0.94,0.32c-0.47,0-0.79-0.03-1-0.09c-0.2-0.06-0.48-0.26-0.84-0.58C108.67,76.95,107.67,76.36,106.67,76.09z
	 M140.27,45.81v-1.12c0-0.43,0.24-0.65,0.74-0.65h10.71c0.4,0,0.66,0.05,0.79,0.15c0.11,0.09,0.18,0.39,0.18,0.89
	c0,0.74-0.04,1.21-0.12,1.39c-0.08,0.18-0.27,0.3-0.55,0.34c-0.92,0.15-1.39,0.71-1.39,1.67v25.45c0,0.53,0.34,0.96,1.01,1.27
	c0.43,0.19,0.69,0.37,0.78,0.52c0.09,0.15,0.14,0.41,0.14,0.79v0.81c0,0.44-0.05,0.69-0.14,0.75c-0.08,0.05-0.32,0.08-0.69,0.08
	h-10.91c-0.42,0-0.63-0.16-0.63-0.47c0-1.01,0.04-1.63,0.11-1.86c0.07-0.22,0.34-0.4,0.78-0.53c0.81-0.21,1.21-0.61,1.21-1.2v-25.1
	c0-0.59-0.08-1.04-0.22-1.34c-0.15-0.3-0.48-0.56-0.98-0.75c-0.37-0.15-0.6-0.29-0.69-0.41C140.31,46.37,140.27,46.14,140.27,45.81z
	"/>
<path class="st1" d="M73.32,32.58c-0.37-3.75,0.06-7.84,1.88-11.2c0.27-0.49,3.54-6.07,3.78-5.83C78.97,15.54,65.36,1.66,65.36,1.66
	c-14.3,6.88-24.95,0-24.95,0s-10.66,6.88-24.95,0c0,0-13.61,13.88-13.62,13.89c0.24-0.24,3.51,5.34,3.78,5.83
	c1.82,3.35,2.25,7.44,1.88,11.2c-0.84,8.45-6.28,15.59-5.94,24.28C1.9,65.63,7.5,71.83,15.54,74.7c3.92,1.4,8.04,2.05,12.09,2.99
	c4.35,1.01,9.16,2.47,12.78,5.17c0-0.13,0-0.13,0,0c3.62-2.7,8.43-4.16,12.78-5.17c4.04-0.94,8.17-1.59,12.09-2.99
	c8.05-2.87,13.64-9.07,13.99-17.84C79.6,48.17,74.16,41.03,73.32,32.58"/>
<path class="st2" d="M78.38,15.53c-0.62-0.63-1.23-1.26-1.85-1.89c-1.56-1.59-3.11-3.17-4.67-4.76c-2.2-2.24-4.4-4.48-6.59-6.72
	c-5.58,2.63-11.7,3.68-17.79,2.51c-1.81-0.35-3.62-0.89-5.31-1.64c-0.57-0.25-1.21-0.55-1.76-0.88c-0.55,0.33-1.19,0.63-1.76,0.88
	c-1.69,0.75-3.5,1.29-5.31,1.64c-6.1,1.17-12.21,0.12-17.79-2.51c-2.2,2.25-4.4,4.49-6.6,6.74c-1.56,1.59-3.11,3.17-4.67,4.76
	c-0.61,0.62-1.22,1.25-1.83,1.87c0.14,0.17,0.26,0.35,0.39,0.53c0.43,0.62,0.84,1.27,1.24,1.92c0.42,0.68,0.83,1.36,1.24,2.04
	c0.23,0.38,0.47,0.77,0.68,1.17c1.86,3.43,2.31,7.6,1.93,11.43c-0.42,4.25-1.99,8.17-3.43,12.15c-0.7,1.94-1.37,3.9-1.85,5.91
	c-0.48,2.03-0.74,4.07-0.65,6.16c0.34,8.59,5.82,14.65,13.71,17.47c3.9,1.39,8.02,2.04,12.04,2.98c4.33,1,9.04,2.43,12.69,5.06
	c3.65-2.63,8.36-4.05,12.69-5.06c4.02-0.93,8.14-1.58,12.04-2.98c7.89-2.82,13.37-8.88,13.71-17.47c0.08-2.09-0.18-4.13-0.65-6.16
	c-0.47-2.01-1.14-3.97-1.85-5.91c-1.44-3.98-3.01-7.9-3.43-12.15c-0.38-3.84,0.06-8,1.93-11.43c0.21-0.39,0.45-0.78,0.68-1.16
	c0.41-0.68,0.82-1.37,1.24-2.04c0.4-0.64,0.81-1.29,1.24-1.92C78.11,15.88,78.24,15.7,78.38,15.53"/>
<path class="st3" d="M11.15,25.34h58.52c0.28-1.33,0.69-2.61,1.26-3.81c0.22-0.46,2.76-5.31,2.73-5.35
	c-0.64-0.67-9.49-10.15-9.49-10.15c-12.69,6.22-23.75-0.7-23.75-0.7s-11.06,6.92-23.76,0.7c0,0-8.86,9.48-9.49,10.15
	c-0.03,0.03,2.51,4.89,2.73,5.35C10.46,22.73,10.86,24.02,11.15,25.34"/>
<path class="st4" d="M69.34,32.91c-0.14-1.28-0.18-2.61-0.12-3.95H11.6c0.06,1.33,0.02,2.67-0.12,3.95
	c-0.79,7.51-5.64,13.98-5.83,21.62c-0.19,7.84,5.27,14.49,12.43,17.09c3.48,1.27,7.14,1.86,10.73,2.7c3.86,0.91,8.38,2.41,11.6,4.85
	c3.21-2.44,7.73-3.93,11.6-4.85c3.59-0.85,7.25-1.44,10.73-2.7c7.16-2.61,12.62-9.25,12.43-17.09
	C74.98,46.89,70.13,40.42,69.34,32.91"/>
<path class="st5" d="M18.29,20.34c0,0.38,0.05,0.61,0.15,0.71c0.1,0.1,0.36,0.15,0.78,0.15h0.65v1.05h-4.98V21.2h0.54
	c0.41,0,0.67-0.05,0.77-0.15c0.1-0.1,0.15-0.33,0.15-0.72v-5.47c0-0.38-0.05-0.62-0.15-0.71c-0.1-0.1-0.36-0.15-0.77-0.15h-0.54
	v-1.05h5.55c1.16,0,2.03,0.18,2.59,0.55c0.56,0.37,0.84,0.93,0.84,1.68c0,0.67-0.22,1.2-0.67,1.6c-0.45,0.4-1.11,0.65-1.99,0.75
	c0.66,0.1,1.13,0.29,1.39,0.56c0.26,0.28,0.42,0.76,0.46,1.44l0.06,0.83c0.02,0.33,0.06,0.54,0.12,0.63
	c0.06,0.1,0.15,0.15,0.29,0.15c0.27,0,0.41-0.51,0.43-1.52c0-0.02,0-0.03,0-0.04h0.88c0.01,0.06,0.02,0.12,0.02,0.18
	c0,0.06,0,0.16,0,0.28c0,0.85-0.15,1.47-0.46,1.86c-0.31,0.39-0.8,0.59-1.46,0.59c-0.55,0-0.98-0.15-1.29-0.45
	c-0.31-0.3-0.48-0.72-0.49-1.26l-0.04-1.09c-0.03-0.72-0.19-1.22-0.48-1.48c-0.3-0.26-0.85-0.39-1.68-0.39h-0.66V20.34z
	 M18.29,16.81h1.64c0.66,0,1.14-0.11,1.45-0.33c0.31-0.22,0.46-0.58,0.46-1.06c0-0.5-0.15-0.86-0.44-1.07
	c-0.29-0.22-0.8-0.33-1.51-0.33h-1.59V16.81z"/>
<path class="st5" d="M25.77,17.6c0-1.47,0.47-2.65,1.41-3.55c0.94-0.9,2.18-1.35,3.71-1.35c1.54,0,2.77,0.45,3.71,1.35
	c0.93,0.9,1.4,2.08,1.4,3.55c0,1.47-0.47,2.66-1.41,3.56c-0.94,0.9-2.17,1.35-3.7,1.35c-1.53,0-2.77-0.45-3.71-1.35
	C26.24,20.26,25.77,19.07,25.77,17.6 M27.95,17.6c0,1.2,0.26,2.13,0.78,2.8c0.52,0.67,1.23,1,2.16,1c0.92,0,1.63-0.33,2.15-1
	c0.51-0.67,0.77-1.6,0.77-2.81c0-1.2-0.26-2.13-0.77-2.8c-0.51-0.66-1.23-1-2.15-1c-0.92,0-1.64,0.33-2.16,1
	C28.21,15.47,27.95,16.4,27.95,17.6z"/>
<path class="st5" d="M38.15,14.87c0-0.38-0.05-0.62-0.15-0.71c-0.1-0.1-0.35-0.15-0.76-0.15h-0.45v-1.05h4.83v1.05h-0.59
	c-0.42,0-0.68,0.05-0.78,0.15c-0.1,0.1-0.15,0.34-0.15,0.71v4.45c0,0.65,0.15,1.12,0.46,1.41c0.3,0.29,0.8,0.43,1.48,0.43
	c0.64,0,1.13-0.15,1.46-0.46c0.33-0.31,0.49-0.77,0.49-1.38v-4.45c0-0.38-0.05-0.62-0.15-0.71c-0.1-0.1-0.36-0.15-0.77-0.15h-0.54
	v-1.05h4.25v1.05h-0.43c-0.41,0-0.66,0.05-0.76,0.15c-0.1,0.1-0.15,0.33-0.15,0.71v4.45c0,1.05-0.31,1.84-0.94,2.39
	c-0.63,0.55-1.54,0.82-2.73,0.82c-1.19,0-2.09-0.27-2.7-0.82c-0.62-0.54-0.92-1.34-0.92-2.39V14.87z"/>
<path class="st5" d="M50.79,13.99h-0.18c-0.74,0-1.28,0.22-1.62,0.66c-0.34,0.45-0.51,1.17-0.53,2.16H47.4v-3.85h8.75v3.85h-1.07
	c-0.01-0.98-0.18-1.7-0.52-2.15c-0.34-0.45-0.88-0.68-1.62-0.68h-0.2v6.36c0,0.37,0.05,0.61,0.15,0.71c0.1,0.1,0.36,0.15,0.77,0.15
	h0.79v1.05h-5.39V21.2h0.81c0.41,0,0.66-0.05,0.76-0.15c0.1-0.1,0.15-0.33,0.15-0.71V13.99z"/>
<path class="st5" d="M56.79,22.25V21.2h0.54c0.41,0,0.67-0.05,0.77-0.15c0.1-0.1,0.15-0.34,0.15-0.72v-5.47
	c0-0.38-0.05-0.61-0.15-0.71c-0.1-0.1-0.36-0.15-0.77-0.15h-0.54v-1.05h9.14v3.7h-1.05c-0.03-1.06-0.2-1.76-0.52-2.12
	c-0.32-0.35-0.96-0.53-1.93-0.53h-2.23v2.85h0.53c0.58,0,0.96-0.1,1.14-0.3c0.18-0.2,0.29-0.66,0.34-1.39l1.05-0.01v4.66l-1.05-0.01
	c-0.04-0.8-0.15-1.31-0.33-1.54c-0.18-0.23-0.56-0.35-1.14-0.35h-0.54v3.27h2.43c0.81,0,1.37-0.19,1.67-0.57
	c0.3-0.38,0.49-1.15,0.57-2.31h1.05v3.93H56.79z"/>
<path class="st5" d="M29.62,48.23c0-0.41-0.15-0.75-0.45-1.03c-0.3-0.28-0.71-0.42-1.22-0.42c-1.28,0-1.92,0.72-1.92,2.14v13.32
	c0,0.38,0.18,0.69,0.52,0.94c0.35,0.25,0.77,0.37,1.25,0.37c0.58,0,1.03-0.19,1.35-0.56c0.31-0.37,0.47-1.15,0.47-2.33V48.23z
	 M25.81,45.53c1.5-1.29,3.12-1.93,4.85-1.93c2.33,0,4.33,0.88,6.01,2.64c1.67,1.76,2.51,4.3,2.51,7.64c0,3.5-1.05,6.39-3.13,8.67
	c-2.08,2.28-4.85,3.42-8.31,3.42c-2.29,0-4.26-0.47-5.9-1.41c-1.64-0.94-2.96-2.45-3.96-4.53c-1-2.07-1.51-4.77-1.51-8.08
	c0-4.02,0.75-7.25,2.25-9.7c1.49-2.46,3.65-4.23,6.46-5.3c2.81-1.08,5.8-1.62,8.97-1.62c0.86,0,1.45,0.04,1.77,0.13
	c0.32,0.09,0.48,0.26,0.48,0.5c0,0.93-0.06,1.49-0.18,1.67c-0.11,0.18-0.51,0.27-1.2,0.27c-1.53,0-3.12,0.27-4.74,0.82
	c-1.63,0.54-2.76,1.32-3.4,2.31C26.13,42.02,25.81,43.52,25.81,45.53z"/>
<path class="st5" d="M54.84,49.45c5.89,1.16,8.84,3.77,8.84,7.85c0,1.73-0.55,3.25-1.63,4.56c-1.09,1.31-2.58,2.32-4.48,3.04
	c-1.9,0.72-3.94,1.07-6.08,1.07c-2.88,0-5.2-0.67-6.94-2.01c-1.74-1.34-2.61-2.9-2.61-4.69c0-0.9,0.3-1.67,0.92-2.3
	c0.61-0.64,1.47-0.96,2.6-0.96c1.09,0,1.93,0.28,2.52,0.84c0.6,0.57,0.89,1.26,0.89,2.09c0,0.34-0.09,0.91-0.27,1.7
	c-0.1,0.35-0.15,0.67-0.15,0.96c0,0.54,0.23,1,0.67,1.38c0.45,0.38,1.07,0.57,1.86,0.57c1.05,0,1.83-0.33,2.33-0.98
	c0.51-0.65,0.76-1.7,0.76-3.15c0-0.37-0.02-0.75-0.05-1.12l-0.29-4.62c-0.25-0.91-0.66-1.58-1.22-2c-0.56-0.43-1.15-0.68-1.77-0.78
	c-0.62-0.1-1.61-0.14-2.97-0.14l-0.72,0.02c-0.5,0-0.77-0.18-0.8-0.54l-0.04-0.82c-0.02-0.09-0.03-0.17-0.03-0.26
	c0-0.56,0.37-0.84,1.11-0.84c1.88,0,3.24-0.12,4.05-0.36c0.82-0.24,1.37-0.61,1.64-1.12c0.28-0.5,0.42-1.59,0.42-3.27
	c0-2.38-0.17-3.96-0.5-4.75c-0.33-0.79-1.01-1.18-2.04-1.18c-0.62,0-1.18,0.15-1.65,0.47c-0.46,0.31-0.7,0.71-0.7,1.19
	c0,0.33,0.07,0.79,0.22,1.4c0.21,0.86,0.32,1.5,0.32,1.94c0,0.72-0.32,1.29-0.96,1.72c-0.65,0.42-1.42,0.63-2.3,0.63
	c-1.1,0-1.97-0.33-2.59-0.99c-0.62-0.66-0.93-1.48-0.93-2.46c0-1.72,0.88-3.23,2.65-4.53c1.76-1.3,4.15-1.94,7.15-1.94
	c3.46,0,6.1,0.8,7.91,2.39c1.81,1.6,2.72,3.36,2.72,5.28c0,1.5-0.61,2.83-1.83,4.02c-1.21,1.18-2.98,2.02-5.31,2.53L54.84,49.45z"/>
</svg>
