<svg width="100" height="22" viewBox="0 0 100 22" fill="none" xmlns="http://www.w3.org/2000/svg">
<path d="M17.2887 0.185969L12.7478 0.247505C12.1755 0.254745 11.6074 0.294561 11.0434 0.374196C8.67833 0.707213 7.10019 1.30809 7.10019 1.30809C7.03286 1.33705 6.96131 1.36601 6.89398 1.39135C0.669795 4.01205 -1.82577 10.4443 1.43572 15.7038C3.11486 18.4187 5.47155 20.0331 7.85349 20.7498C7.87032 20.757 7.89136 20.7606 7.9082 20.7679C7.9587 20.7824 8.0092 20.7968 8.0597 20.8113C8.09757 20.8222 8.13966 20.833 8.18174 20.8439C8.21962 20.8547 8.25749 20.862 8.29116 20.8728C8.34166 20.8873 8.39637 20.8982 8.44687 20.9127C8.47633 20.9199 8.50578 20.9271 8.53103 20.9344C8.59416 20.9489 8.65729 20.9633 8.72041 20.9742C8.74145 20.9778 8.75829 20.9814 8.77933 20.9887C8.8635 21.0068 8.94346 21.0213 9.02762 21.0357C9.64625 21.1479 10.2775 21.2022 10.9172 21.2022H12.146V16.9563H11.7546C8.72883 16.9563 6.03547 15.2586 5.17696 12.7646C5.17275 12.7465 5.16434 12.7284 5.16013 12.7103C4.67617 11.2696 4.59621 9.73849 5.16013 8.46434C5.78718 7.04902 7.76932 5.38393 9.20858 5.0111C10.2943 4.72876 10.2775 4.68894 11.6158 4.58035C13.7073 4.41384 17.2887 4.44642 17.2887 4.44642H22.0231V0.17511H17.2929L17.2887 0.185969Z" fill="white"/>
<path d="M22.0189 17.0431V12.8768V12.8659V8.69962H17.0824H14.5069H10.0965V12.8659L13.5895 14.9582L17.0824 12.8659V12.8768V17.0431V21.2167H17.2971H22.0189V21.2059" fill="#3EB1B7"/>
<path d="M25.0194 21.1371L33.7602 0.493645H38.8019L47.5805 21.1371H42.884L35.3762 2.61844H37.1943L29.6865 21.1371H25.0236H25.0194ZM29.0637 16.3916L30.2631 13.3836H42.3327L43.5321 16.3916H29.0637Z" fill="white"/>
<path d="M49.6005 21.1371V0.493645H54.9494L63.484 17.9807L61.5986 18.187L70.0995 0.493645H75.4147V21.1371H70.958V3.56319L72.4646 4.44641L64.3046 21.1371H60.7401L52.5464 4.44641L54.053 3.56319V21.1371H49.5963H49.6005Z" fill="white"/>
<path d="M77.4389 21.1371L86.1797 0.493645H91.2214L100 21.1371H95.3035L87.7958 2.61844H89.6138L82.106 21.1371H77.4432H77.4389ZM81.4832 16.3916L82.6826 13.3836H94.7522L95.9516 16.3916H81.4832Z" fill="white"/>
</svg>
